<svg width="24" height="24" viewBox="0 0 24 24" fill="none" xmlns="http://www.w3.org/2000/svg">
<path fill-rule="evenodd" clip-rule="evenodd" d="M12.1683 18.273C10.8162 16.5764 10.0212 15.0893 9.75759 13.817C8.54956 9.10268 15.7903 9.10268 14.5822 13.817C14.2903 15.1161 13.4953 16.6027 12.1715 18.273H12.1683ZM19.5693 22.1962C17.3161 23.1771 15.087 21.6133 13.1782 19.4925C18.7443 12.5244 15.6484 8.77817 12.1684 8.77817C9.22627 8.77817 7.60627 11.2698 8.2427 14.1621C8.61395 15.7258 9.59431 17.5044 11.1586 19.4925C9.41591 21.4237 7.91484 22.3151 6.59698 22.4346C3.91841 22.8326 1.82324 20.235 2.77734 17.5548C3.58627 15.4569 8.76234 5.17013 8.98466 4.61406C9.82841 3.00317 10.3539 1.53906 12.1657 1.53906C13.8982 1.53906 14.4907 2.92871 15.3998 4.74638C17.3284 8.5296 20.1864 14.2542 21.552 17.5548C22.2575 19.3264 21.4786 21.3739 19.5693 22.1962ZM22.0887 14.9052C15.1844 0.210536 14.8019 0 12.1699 0C9.73135 0 8.69475 1.69661 7.63457 3.89946C1.94743 15.2732 1.39618 16.8852 1.3485 17.0255C-0.00257418 20.7396 2.781 24 6.1501 24C7.31314 24 9.39707 23.6754 12.1699 20.6571C15.3135 24.0739 17.5946 24 18.1897 24C21.5589 24.0027 24.3424 20.7396 22.9903 17.0255C22.9914 16.8171 22.0892 14.9416 22.0892 14.9052H22.0887Z" fill="#3D53F5"/>
</svg>
