<svg width="24" height="24" viewBox="0 0 24 24" fill="none" xmlns="http://www.w3.org/2000/svg">
<path fill-rule="evenodd" clip-rule="evenodd" d="M0 15.2065C0.0901961 15.0418 0.203922 15.0143 0.380392 15.1085C0.788235 15.3281 1.18824 15.5555 1.60392 15.7634L1.60392 15.7634C3.19479 16.5567 4.87099 17.1658 6.6 17.579L6.59999 17.579C7.41753 17.7763 8.2448 17.9307 9.07843 18.0418L9.07842 18.0418C10.3129 18.2077 11.5586 18.2759 12.8039 18.2457C13.4863 18.23 14.1686 18.1751 14.847 18.0967L14.847 18.0967C17.0498 17.8399 19.2055 17.2749 21.251 16.4183C21.3647 16.3712 21.4823 16.3398 21.6078 16.3712C21.8706 16.4418 21.9608 16.7241 21.7686 16.9163V16.9163C21.6518 17.0237 21.5258 17.1208 21.3921 17.2065C20.1882 18.0339 18.8745 18.6339 17.4863 19.0849V19.0849C16.525 19.3947 15.54 19.6256 14.5412 19.7751V19.7751C13.8503 19.8809 13.1535 19.9438 12.4549 19.9634V19.9634C12.422 19.9653 12.3893 19.9693 12.3568 19.9751H11.5294V19.9751C11.497 19.9693 11.4643 19.9653 11.4314 19.9634C11.2902 19.9555 11.149 19.9516 11.0118 19.9477V19.9477C10.3494 19.9176 9.68942 19.8482 9.0353 19.7398L9.0353 19.7398C7.96122 19.5648 6.90571 19.2904 5.88235 18.9202V18.9202C3.77725 18.161 1.83851 17.0026 0.172551 15.5085C0.101962 15.4457 0.0549037 15.3594 1.6946e-06 15.2849L0 15.2065ZM6.19608 5.00393L6.02745 5.02746L6.02745 5.02746C5.48822 5.09402 4.9751 5.29791 4.53725 5.61962C4.44314 5.68628 4.35686 5.75687 4.25882 5.83138V5.83138C4.2505 5.81411 4.2452 5.79554 4.24314 5.77648C4.22745 5.6706 4.21176 5.56079 4.19216 5.45491C4.16471 5.27452 4.07451 5.19609 3.89412 5.19609H3.44314C3.17255 5.19609 3.12157 5.24707 3.12157 5.51766V13.7255C3.12157 13.7647 3.12157 13.8039 3.12549 13.8431C3.13333 13.9608 3.20392 14.0353 3.31765 14.0392C3.59216 14.0431 3.87059 14.0431 4.1451 14.0392C4.25882 14.0392 4.32941 13.9608 4.34118 13.8431C4.3451 13.8039 4.3451 13.7647 4.3451 13.7255V10.8863C4.38824 10.9216 4.41176 10.9412 4.43137 10.9608C5.13333 11.5451 5.94118 11.7373 6.82353 11.5647C7.62353 11.4079 8.18039 10.9177 8.54118 10.1961C8.81569 9.65099 8.92941 9.0706 8.9451 8.46668C8.96471 7.79609 8.89804 7.13726 8.62745 6.51373C8.29412 5.74511 7.74118 5.23923 6.90588 5.06668C6.78039 5.03923 6.65098 5.02746 6.52157 5.00785C6.41176 5.00393 6.30588 5.00393 6.19608 5.00393L6.19608 5.00393ZM4.33726 6.64707H4.33726C4.33269 6.59469 4.35863 6.54435 4.40392 6.51766C4.94118 6.14511 5.53333 5.94903 6.19216 6.00001C6.77647 6.04315 7.2549 6.32942 7.50588 7.0157C7.65882 7.4353 7.69804 7.8706 7.69804 8.30981C7.69804 8.71766 7.66667 9.11766 7.54118 9.50981C7.27451 10.3451 6.66275 10.6628 5.87059 10.6275C5.32157 10.6039 4.84314 10.3922 4.40392 10.0824H4.40392C4.35926 10.0551 4.33354 10.0052 4.33726 9.95295C4.34118 9.40001 4.33726 8.85099 4.33726 8.29805C4.33726 7.74511 4.34118 7.20001 4.33726 6.64707H4.33726ZM12.4039 5.00393C12.3647 5.00785 12.3255 5.0157 12.2902 5.01962L12.2902 5.01962C11.908 5.03574 11.5284 5.08959 11.1569 5.1804C10.9176 5.24315 10.6863 5.32942 10.4549 5.40785C10.3137 5.45491 10.2431 5.55687 10.2471 5.70981C10.251 5.83922 10.2431 5.96864 10.2471 6.09805C10.251 6.28628 10.3294 6.33726 10.5137 6.29021C10.8196 6.21177 11.1255 6.1255 11.4353 6.06668C11.9176 5.97648 12.4039 5.93726 12.8941 6.01177C13.149 6.05099 13.3882 6.1255 13.5529 6.34119C13.698 6.52942 13.7529 6.75295 13.7608 6.98432C13.7725 7.30981 13.7686 7.6353 13.7725 7.96079V7.96079C13.7716 7.97929 13.769 7.99767 13.7647 8.0157C13.7451 8.01177 13.7294 8.0157 13.7137 8.01177H13.7137C13.302 7.91028 12.882 7.84597 12.4588 7.81962C12.0157 7.79609 11.5765 7.82354 11.1529 7.97256C10.6471 8.14903 10.2392 8.45491 10 8.94903C9.81569 9.33334 9.78824 9.74119 9.84706 10.153C9.92549 10.702 10.2 11.1255 10.6863 11.3961C11.1529 11.6549 11.6588 11.6863 12.1726 11.6079C12.7647 11.5177 13.2902 11.2667 13.7529 10.8863H13.7529C13.7719 10.8692 13.793 10.8547 13.8157 10.8431C13.8392 10.9922 13.8588 11.1333 13.8863 11.2745C13.9098 11.3961 13.9843 11.4745 14.098 11.4784C14.3098 11.4824 14.5255 11.4824 14.7373 11.4784V11.4784C14.8394 11.4776 14.9225 11.3962 14.9255 11.2941V11.2941C14.9288 11.2576 14.9301 11.221 14.9294 11.1843V7.02746L14.9294 7.02745C14.9313 6.85815 14.9195 6.68897 14.8941 6.52157C14.8196 6.01569 14.6039 5.6 14.149 5.32941C13.8863 5.17255 13.5961 5.09412 13.2941 5.05098C13.1529 5.03137 13.0118 5.01961 12.8706 5C12.7177 5.00392 12.5608 5.00392 12.4039 5.00392L12.4039 5.00393ZM13.7764 10.0136V10.0136C13.7794 10.0605 13.757 10.1055 13.7176 10.1312C13.2784 10.4489 12.796 10.6607 12.2509 10.7156C12.0274 10.7391 11.8039 10.7312 11.5921 10.645V10.645C11.3561 10.5587 11.1754 10.3649 11.1058 10.1234H11.1058C11.0281 9.87597 11.0267 9.61084 11.1019 9.36262C11.2 9.03713 11.4313 8.85281 11.7451 8.75085V8.75085C12.0599 8.6559 12.3909 8.62654 12.7176 8.66458C13.047 8.69203 13.3686 8.75478 13.698 8.79791C13.7607 8.80576 13.7803 8.83713 13.7803 8.89987C13.7764 9.08811 13.7803 9.27242 13.7803 9.46066C13.7803 9.64889 13.7725 9.82929 13.7764 10.0136H13.7764ZM23.9706 15.0863C23.9313 14.8902 23.7823 14.8157 23.6137 14.7608V14.7608C23.3464 14.6767 23.0699 14.6254 22.7902 14.6079L22.7902 14.6079C22.2767 14.564 21.7597 14.5891 21.2529 14.6824C20.6921 14.7882 20.1588 14.9686 19.6843 15.2941L19.6843 15.2941C19.6278 15.3304 19.5786 15.377 19.5392 15.4314L19.5392 15.4314C19.5114 15.4788 19.5043 15.5355 19.5196 15.5882C19.5353 15.6471 19.6019 15.6628 19.6608 15.6588H19.6608C19.6896 15.6595 19.7184 15.6582 19.747 15.6549C20.0529 15.6235 20.3549 15.5882 20.6608 15.5569C21.1078 15.5137 21.5588 15.4863 22.0059 15.5216V15.5216C22.1972 15.5375 22.3864 15.573 22.5706 15.6275C22.7706 15.6824 22.8608 15.8314 22.8686 16.0353C22.8843 16.349 22.8137 16.651 22.7313 16.949C22.5706 17.553 22.3392 18.1373 22.1117 18.7177V18.7177C22.0952 18.7556 22.082 18.795 22.0725 18.8353C22.0529 18.949 22.1196 19.0235 22.2333 18.9961V18.9961C22.3035 18.9803 22.3684 18.9465 22.4215 18.898H22.4215C22.5985 18.7336 22.7648 18.5581 22.9196 18.3726C23.4215 17.7294 23.7157 16.9882 23.8882 16.1922C23.9196 16.051 23.9431 15.9059 23.9706 15.7647V15.0863L23.9706 15.0863ZM18.7897 10.2549C18.2838 8.85492 17.7779 7.45361 17.272 6.051C17.1936 5.82747 17.1073 5.60786 17.025 5.38825C16.9818 5.27453 16.8995 5.20002 16.774 5.20002C16.476 5.1961 16.1779 5.19217 15.876 5.1961C15.7779 5.1961 15.7309 5.27453 15.7505 5.37257L15.7505 5.37257C15.7694 5.45404 15.7943 5.534 15.825 5.61178C16.5936 7.51374 17.3662 9.4157 18.1426 11.3177C18.2093 11.4784 18.225 11.6157 18.1505 11.7804C18.0211 12.0667 17.9191 12.3686 17.7858 12.6549C17.6681 12.9098 17.472 13.102 17.1897 13.1765H17.1897C16.9928 13.2279 16.788 13.2426 16.5858 13.2196C16.4877 13.2118 16.3897 13.1883 16.2916 13.1804C16.1583 13.1726 16.0916 13.2314 16.0877 13.3686C16.0838 13.4994 16.0838 13.6288 16.0877 13.7569C16.0916 13.9726 16.1662 14.0706 16.3779 14.1059H16.3779C16.5964 14.1494 16.818 14.1756 17.0407 14.1843C17.7113 14.2 18.2446 13.9294 18.5897 13.3451H18.5897C18.7286 13.1144 18.8492 12.8731 18.9505 12.6235C19.8799 10.2784 20.8028 7.93072 21.7191 5.58041L21.7191 5.58041C21.7477 5.51098 21.7687 5.43866 21.7818 5.36472C21.7975 5.25492 21.7465 5.19217 21.6367 5.19217C21.3779 5.18825 21.1152 5.19217 20.8564 5.19217V5.19217C20.7208 5.18269 20.5962 5.26681 20.5544 5.39609C20.5348 5.451 20.5113 5.50198 20.4916 5.55688L19.1269 9.47845C19.0289 9.7608 18.9269 10.0471 18.825 10.349C18.8093 10.3059 18.8015 10.2824 18.7897 10.2549L18.7897 10.2549Z" fill="#3D53F5"/>
</svg>
