<svg width="24" height="25" viewBox="0 0 24 25" fill="none" xmlns="http://www.w3.org/2000/svg">
<path fill-rule="evenodd" clip-rule="evenodd" d="M13.4007 7.00179C10.7917 7.09821 4.32031 7.83214 4.32031 13.2964C4.32031 19.1625 11.7292 19.4036 14.1507 15.6107C14.4989 16.1571 16.0471 17.6196 16.5775 18.1179L19.6203 15.1179C19.6203 15.1179 17.89 13.7625 17.89 12.2893V4.40893C17.89 3.05357 16.5775 0 11.8739 0C7.1596 0 4.65781 2.94643 4.65781 5.5875L8.59531 5.95179C9.46853 3.3 11.4989 3.3 11.4989 3.3C13.6792 3.29464 13.4007 4.89643 13.4007 7.00179ZM13.402 11.6518C13.402 15.9375 8.89131 15.2946 8.89131 12.5732C8.89131 10.0446 11.5967 9.53571 13.402 9.47679V11.6518ZM20.6877 20.4124C20.2752 20.9481 16.9377 24.0017 11.3395 24.0017C5.74131 24.0017 1.45559 20.1713 0.143094 18.591C-0.221192 18.1785 0.196665 17.9856 0.437736 18.1463C4.36452 20.5302 10.4985 24.457 20.3931 19.7695C20.7949 19.5713 21.1056 19.8767 20.6877 20.4124ZM22.8199 20.5286C22.4717 21.375 21.9627 21.9643 21.6842 22.1893C21.3895 22.4304 21.1752 22.3339 21.336 21.9857C21.4967 21.6375 22.3699 19.4946 22.0163 19.0393C21.6681 18.5946 20.0342 18.8089 19.4449 18.8679C18.8663 18.9214 18.7485 18.975 18.6949 18.8518C18.5717 18.5464 19.8574 18.0214 20.7038 17.9143C21.5449 17.8179 22.9002 17.8714 23.1681 18.2196C23.3663 18.4929 23.1681 19.6714 22.8199 20.5286Z" fill="#3D53F5"/>
</svg>
