<svg width="24" height="24" viewBox="0 0 24 24" fill="none" xmlns="http://www.w3.org/2000/svg">
<path fill-rule="evenodd" clip-rule="evenodd" d="M6.60156 17.0001C6.60156 17.4584 7.00656 17.8334 7.50156 17.8334H8.40156V20.7501C8.40156 21.4417 9.00456 22.0001 9.75156 22.0001C10.4986 22.0001 11.1016 21.4417 11.1016 20.7501V17.8334H12.9016V20.7501C12.9016 21.4417 13.5046 22.0001 14.2516 22.0001C14.9986 22.0001 15.6016 21.4417 15.6016 20.7501V17.8334H16.5016C16.9966 17.8334 17.4016 17.4584 17.4016 17.0001V8.66675H6.60156V17.0001ZM4.35 8.66666C3.603 8.66666 3 9.225 3 9.91666V15.75C3 16.4417 3.603 17 4.35 17C5.097 17 5.7 16.4417 5.7 15.75V9.91666C5.7 9.225 5.097 8.66666 4.35 8.66666ZM19.65 8.66666C18.903 8.66666 18.3 9.225 18.3 9.91666V15.75C18.3 16.4417 18.903 17 19.65 17C20.397 17 21 16.4417 21 15.75V9.91666C21 9.225 20.397 8.66666 19.65 8.66666ZM15.1786 3.8L16.3486 2.71667C16.5286 2.55 16.5286 2.29167 16.3486 2.125C16.1686 1.95833 15.8896 1.95833 15.7096 2.125L14.3776 3.35833C13.6666 3.025 12.8566 2.83333 12.0016 2.83333C11.1376 2.83333 10.3276 3.025 9.60756 3.35833L8.26656 2.125C8.08656 1.95833 7.80756 1.95833 7.62756 2.125C7.44756 2.29167 7.44756 2.55 7.62756 2.71667L8.80656 3.80833C7.47456 4.71667 6.60156 6.175 6.60156 7.83333H17.4016C17.4016 6.175 16.5286 4.70833 15.1786 3.8ZM10.2 6.16667H9.3V5.33333H10.2V6.16667ZM14.7 6.16667H13.8V5.33333H14.7V6.16667Z" fill="#3D53F5"/>
</svg>
