<svg width="24" height="24" viewBox="0 0 24 24" fill="none" xmlns="http://www.w3.org/2000/svg">
<path fill-rule="evenodd" clip-rule="evenodd" d="M11.9952 5.46135L12.4355 4.70167C12.7065 4.22748 13.3113 4.0678 13.7855 4.33877C14.2597 4.60974 14.4194 5.21458 14.1484 5.68877L9.91452 13.0194H12.9774C13.9694 13.0194 14.5258 14.1855 14.0952 14.9936H5.11936C4.57259 14.9936 4.13226 14.5533 4.13226 14.0065C4.13226 13.4597 4.57259 13.0194 5.11936 13.0194H7.63549L10.8581 7.43555L9.85162 5.68877C9.58065 5.21458 9.74033 4.61458 10.2145 4.33877C10.6887 4.0678 11.2887 4.22748 11.5645 4.70167L11.9952 5.46135V5.46135ZM8.18707 16.01L7.23869 17.6552C6.96772 18.1294 6.36288 18.2891 5.88869 18.0181C5.41449 17.7471 5.25482 17.1423 5.52578 16.6681L6.23223 15.4487C7.02578 15.202 7.67417 15.3907 8.18707 16.01V16.01ZM16.3597 13.0244H18.929C19.4758 13.0244 19.9161 13.4648 19.9161 14.0115C19.9161 14.5583 19.4758 14.9986 18.929 14.9986H17.5016L18.4645 16.668C18.7355 17.1422 18.5758 17.7422 18.1016 18.018C17.6274 18.289 17.0274 18.1293 16.7516 17.6551C15.1306 14.8438 13.9113 12.739 13.1032 11.3357C12.2758 9.90832 12.8661 8.47606 13.4516 7.99219C14.1 9.10509 15.0677 10.7841 16.3597 13.0244V13.0244ZM12 0C5.37097 0 0 5.37097 0 12C0 18.629 5.37097 24 12 24C18.629 24 24 18.629 24 12C24 5.37097 18.629 0 12 0ZM22.4501 11.9985C22.4501 17.742 17.8001 22.4501 11.9985 22.4501C6.25494 22.4501 1.54688 17.8001 1.54688 11.9985C1.54688 6.25494 6.19687 1.54688 11.9985 1.54688C17.742 1.54688 22.4501 6.19687 22.4501 11.9985Z" fill="#3D53F5"/>
</svg>
