<svg width="24" height="24" viewBox="0 0 24 24" fill="none" xmlns="http://www.w3.org/2000/svg">
<path fill-rule="evenodd" clip-rule="evenodd" d="M15.0726 5.19296C15.8017 4.34797 16.2931 3.17098 16.1586 2C15.108 2.04 13.8369 2.67099 13.0836 3.51498C12.4071 4.26397 11.8165 5.46095 11.9753 6.60894C13.1473 6.69593 14.3435 6.03894 15.0726 5.19296M17.699 12.6248C17.7283 15.6518 20.4697 16.6588 20.5 16.6718C20.4778 16.7428 20.0622 18.1068 19.056 19.5167C18.1854 20.7347 17.2824 21.9477 15.8596 21.9737C14.4622 21.9987 14.0122 21.1797 12.4135 21.1797C10.8158 21.1797 10.3162 21.9477 8.9936 21.9987C7.6204 22.0477 6.57381 20.6807 5.6971 19.4668C3.90324 16.9838 2.53307 12.4498 4.37344 9.38986C5.28756 7.87088 6.92064 6.90789 8.69427 6.88389C10.0422 6.85889 11.3153 7.75288 12.1394 7.75288C12.9635 7.75288 14.5107 6.67789 16.1367 6.83589C16.8172 6.86289 18.7284 7.09889 19.955 8.81986C19.8559 8.87886 17.6747 10.0948 17.699 12.6248" fill="#3D53F5"/>
</svg>
