<svg width="24" height="24" viewBox="0 0 24 24" fill="none" xmlns="http://www.w3.org/2000/svg">
<path fill-rule="evenodd" clip-rule="evenodd" d="M4.37386 8.26355C4.09349 8.59626 3.64489 8.85794 3.19629 8.82056C3.14022 8.37196 3.36078 7.89346 3.61872 7.60187C3.8991 7.26168 4.38882 7.01869 4.78882 7C4.83368 7.46355 4.6505 7.92336 4.37386 8.26355M4.77954 8.90477C4.12907 8.86738 3.57206 9.27486 3.26552 9.27486C2.9515 9.27486 2.48047 8.92346 1.96458 8.93467C1.29543 8.94589 0.674865 9.32346 0.334678 9.92533C-0.368126 11.1328 0.1515 12.916 0.831874 13.8992C1.16458 14.3851 1.56085 14.9197 2.08421 14.901C2.58141 14.8823 2.7758 14.5795 3.37393 14.5795C3.9758 14.5795 4.1515 14.901 4.67486 14.8936C5.21692 14.8823 5.55711 14.4076 5.88982 13.9216C6.26739 13.3683 6.4244 12.8337 6.43187 12.8038C6.42066 12.7926 5.38515 12.3964 5.37393 11.2001C5.36272 10.1982 6.19262 9.72346 6.23 9.69355C5.76272 8.99823 5.03374 8.92346 4.77954 8.90477M8.53125 7.55469V14.8407H9.66396V12.3509H11.2303C12.6621 12.3509 13.664 11.3678 13.664 9.94721C13.664 8.52665 12.677 7.55469 11.2677 7.55469H8.53125V7.55469ZM9.66406 8.50781H10.9687C11.9519 8.50781 12.5127 9.03118 12.5127 9.9508C12.5127 10.8704 11.9519 11.4013 10.965 11.4013H9.66406V8.50781V8.50781ZM15.7291 14.8936C16.4393 14.8936 17.0973 14.5347 17.3963 13.9627H17.4188V14.8375H18.4655V11.2113C18.4655 10.1608 17.6244 9.48047 16.3309 9.48047C15.1309 9.48047 14.2412 10.1683 14.2076 11.1104H15.2281C15.3141 10.6618 15.7291 10.3665 16.2973 10.3665C16.9889 10.3665 17.3777 10.6879 17.3777 11.2823V11.6861L15.9646 11.7721C14.6524 11.8506 13.9421 12.3889 13.9421 13.3235C13.9459 14.2655 14.6786 14.8936 15.7291 14.8936ZM16.0338 14.0307C15.4319 14.0307 15.0469 13.7391 15.0469 13.298C15.0469 12.8382 15.417 12.5728 16.1235 12.5316L17.3796 12.4531V12.8643C17.3796 13.5447 16.8001 14.0307 16.0338 14.0307V14.0307ZM19.8674 16.822C20.9702 16.822 21.4898 16.3995 21.9422 15.1248L23.9272 9.55469H22.7758L21.445 13.8575H21.4225L20.0917 9.55469H18.9104L20.8244 14.8594L20.7197 15.1809C20.5478 15.7267 20.2674 15.9397 19.7665 15.9397C19.6768 15.9397 19.5048 15.9285 19.4338 15.921V16.7958C19.5011 16.8108 19.7814 16.822 19.8674 16.822V16.822Z" fill="#3D53F5"/>
</svg>
