<svg width="24" height="24" viewBox="0 0 24 24" fill="none" xmlns="http://www.w3.org/2000/svg">
<path fill-rule="evenodd" clip-rule="evenodd" d="M24 10.3164V12.3414L12 19.8414L0 12.3452V10.3202L12 17.8202L24 10.3164ZM16.7062 13.0164L18.4725 11.9139C17.0775 9.82141 14.6962 8.44141 11.9962 8.44141C9.29624 8.44141 6.91499 9.81766 5.52374 11.9064H5.53499C5.62874 11.8202 5.72624 11.7377 5.82374 11.6552C9.18749 8.86516 14.0512 9.47641 16.7062 13.0164ZM8.45251 13.7242C9.08626 13.278 9.82126 13.023 10.605 13.023C11.895 13.023 13.05 13.713 13.845 14.808L15.5475 13.743C14.7638 12.6217 13.4625 11.8867 11.9925 11.8867C10.5338 11.8867 9.24001 12.6142 8.45251 13.7242V13.7242ZM3.885 8.8625C8.8275 4.95125 15.8175 5.9975 19.5412 11.1912L19.5675 11.2288L21.3975 10.0887C19.3913 7.025 15.93 5 11.9963 5C8.115 5 4.62375 7.00625 2.6025 10.085C2.97375 9.69125 3.45375 9.20375 3.885 8.8625Z" fill="#3D53F5"/>
</svg>
