<svg width="24" height="24" viewBox="0 0 24 24" fill="none" xmlns="http://www.w3.org/2000/svg">
<path fill-rule="evenodd" clip-rule="evenodd" d="M6.7549 10.2403C6.72794 11.0883 7.15178 11.4639 7.16226 11.7024C7.15213 11.8009 7.09492 11.8884 7.00875 11.9371L6.5295 12.2726C6.46748 12.3161 6.39437 12.341 6.3187 12.3445C6.3026 12.3438 6.01206 12.413 5.5519 11.3856C4.98297 12.0958 4.11753 12.5029 3.20769 12.4883C2.59814 12.5216 0.946223 12.1423 1.03122 10.3837C0.971683 8.95043 2.30647 8.06007 3.68694 8.13533C3.95278 8.13607 4.49568 8.14918 5.44632 8.37008V7.78525C5.54703 6.79455 4.89593 6.02587 3.76856 6.14119C3.6787 6.14157 3.0422 6.12247 2.05224 6.51972C1.77668 6.64628 1.74148 6.62531 1.64975 6.62531C1.37231 6.62531 1.4865 5.82107 1.53967 5.71923C1.73474 5.4796 2.88232 5.03217 4.00856 5.03854V5.03854C4.76161 4.97194 5.51061 5.20435 6.09368 5.68553V5.68553C6.57263 6.22126 6.81167 6.92956 6.75527 7.64597L6.7549 10.2403ZM3.5192 11.4512C4.73343 11.4336 5.2475 10.7035 5.3647 10.3104C5.4568 9.93406 5.44145 9.69594 5.44145 9.28445C5.07939 9.19759 4.55821 9.10286 3.96027 9.10211C3.39303 9.05943 2.35702 9.31291 2.39746 10.31C2.35103 10.9386 2.81381 11.4856 3.5192 11.4512ZM9.91712 12.3161C9.62283 12.3431 9.4858 12.1342 9.44237 11.9279L7.57778 5.76311C7.54146 5.65903 7.5175 5.55157 7.50589 5.44187L7.50589 5.44187C7.49157 5.34769 7.55625 5.25971 7.65042 5.2453C7.6594 5.2438 7.57067 5.2453 8.48349 5.2453C8.81223 5.21235 8.91931 5.47107 8.95338 5.63357L10.2908 10.9065L11.5324 5.63357C11.5522 5.513 11.6424 5.21909 12.0116 5.25016H12.6541C12.7353 5.24343 13.0701 5.23144 13.1289 5.63843L14.3802 10.9787L15.7606 5.63843C15.7786 5.55681 15.8625 5.21272 16.2354 5.25016H16.9737C17.0055 5.2453 17.204 5.21984 17.1703 5.57141C17.1542 5.64068 17.298 5.17229 15.1953 11.9327C15.1522 12.139 15.0148 12.3479 14.7205 12.321H14.0207C13.6111 12.364 13.5523 11.9593 13.546 11.9185L12.3044 6.78414L11.0771 11.9133C11.0711 11.9541 11.0123 12.3588 10.6023 12.3157H9.91712V12.3161ZM20.1582 12.5268C19.938 12.5272 18.8882 12.5156 18.0106 12.0667C17.8318 11.991 17.7163 11.8149 17.7181 11.6208V11.2183C17.7181 10.9019 17.9503 10.9599 18.0488 10.9977C18.4247 11.1497 18.6658 11.2651 19.1274 11.3572C20.4997 11.6391 21.1032 11.2711 21.2511 11.1894C21.7435 10.897 21.7824 10.2279 21.4477 9.88085C21.0553 9.55174 20.8681 9.53938 19.4584 9.09458C19.2847 9.04628 17.8222 8.585 17.8189 7.13414C17.796 6.07679 18.7568 5.03068 20.4218 5.03929C20.8962 5.03891 22.1602 5.19392 22.5024 5.62412C22.553 5.70238 22.578 5.79448 22.5743 5.88771V6.26625C22.5743 6.43249 22.5136 6.51561 22.392 6.51561C22.1033 6.48341 21.5911 6.09739 20.5513 6.11311C20.2934 6.09963 19.0578 6.14718 19.1132 7.04802C19.0971 7.75792 20.1095 8.02412 20.2252 8.05483C21.5903 8.46556 22.0468 8.5337 22.5885 9.16235C23.2303 9.99542 22.8843 10.9708 22.7514 11.2381C22.037 12.6418 20.1897 12.5276 20.1582 12.5268ZM21.6634 16.453C19.0413 18.3894 15.235 19.4202 11.9851 19.4202H11.9851C7.59999 19.4491 3.36262 17.8367 0.106035 14.8999C-0.138458 14.6794 0.0772052 14.3772 0.374491 14.5453L0.374491 14.5453C3.98702 16.6118 8.07714 17.6975 12.239 17.6949H12.239C15.3469 17.6782 18.4209 17.0477 21.2844 15.8397C21.7255 15.6525 22.0995 16.1317 21.6634 16.453V16.453ZM22.7563 15.2065C22.4208 14.7752 20.5367 15.0051 19.6932 15.1058C19.439 15.1346 19.3959 14.9141 19.6262 14.7512C21.1264 13.6965 23.5905 13.9987 23.8735 14.3532C24.1562 14.7078 23.7968 17.1767 22.3923 18.3561C22.1767 18.5384 21.9704 18.4422 22.0662 18.2026C22.3822 17.407 23.0917 15.6382 22.7563 15.2065Z" fill="#3D53F5"/>
</svg>
