<svg width="24" height="24" viewBox="0 0 24 24" fill="none" xmlns="http://www.w3.org/2000/svg">
<path fill-rule="evenodd" clip-rule="evenodd" d="M14.981 8.11726H20.069V6.65997H14.981V8.11726V8.11726ZM17.4902 11.0432C16.3552 11.0432 15.4932 11.7466 15.4102 13.0458H19.4822C19.2062 11.5038 18.5212 11.0432 17.4902 11.0432V11.0432ZM17.6493 17.0697C18.6973 17.0697 19.4663 16.4077 19.6233 15.85H21.8272C21.1972 17.8671 19.8962 19 17.5602 19C14.5792 19 12.9062 16.8797 12.9062 14.0663C12.9062 7.44081 22.4662 7.20327 21.9862 14.685H15.4102C15.4742 16.2042 16.1013 17.0697 17.6493 17.0697V17.0697V17.0697ZM7.73153 16.7783C8.93453 16.7783 9.77653 16.3156 9.77653 15.067C9.77653 13.7718 9.03253 13.21 7.78353 13.21H4.76953V16.7783H7.73153ZM7.57253 11.2623C8.57353 11.2623 9.26453 10.7965 9.26453 9.71409C9.26453 8.57387 8.46053 8.22168 7.36153 8.22168H4.76953V11.2623H7.57253V11.2623V11.2623ZM7.924 6C10.295 6 11.943 6.7839 11.943 9.22237C11.943 10.4297 11.458 11.3293 10.233 11.9356C11.801 12.4014 12.543 13.6242 12.543 15.2313C12.543 17.7823 10.52 19 8.1 19H2V6H7.924Z" fill="#3D53F5"/>
</svg>
