<svg width="24" height="24" viewBox="0 0 24 24" fill="none" xmlns="http://www.w3.org/2000/svg">
<path fill-rule="evenodd" clip-rule="evenodd" d="M0.777602 1V1C0.35348 0.994666 0.00533915 1.33416 1.54731e-06 1.75828C1.04423e-06 1.75832 5.44267e-07 1.75836 4.74283e-08 1.7584L0 1.7584C0.000809606 1.80334 0.00401403 1.8482 0.00959962 1.8928L3.2688 21.6736V21.6736C3.35206 22.1745 3.7834 22.5431 4.2912 22.5472H19.9248V22.5472C20.3046 22.5522 20.6311 22.2788 20.6928 21.904L23.952 1.8976V1.8976C24.0184 1.48037 23.7353 1.08789 23.3184 1.0192V1.0192C23.2738 1.01344 23.2289 1.01023 23.184 1.0096L0.7776 0.999997L0.777602 1ZM14.5008 15.2944H9.5088L8.16 8.2384H15.7104L14.5008 15.2944Z" fill="#3D53F5"/>
</svg>
