<svg width="24" height="24" viewBox="0 0 24 24" fill="none" xmlns="http://www.w3.org/2000/svg">
<path fill-rule="evenodd" clip-rule="evenodd" d="M24 12C24 18.6274 18.6274 24 12 24C5.37256 24 0 18.6274 0 12C0 5.37256 5.37256 0 12 0C18.6274 0 24 5.37256 24 12ZM17.1459 10.2887C17.3848 8.69198 16.1689 7.83359 14.5064 7.26098L15.0457 5.09798L13.729 4.76986L13.2039 6.87586C12.8578 6.78959 12.5022 6.70825 12.1489 6.62764L12.6778 4.5078L11.3617 4.17969L10.8221 6.34191C10.5355 6.27664 10.2542 6.21214 9.98124 6.1443L9.98274 6.13753L8.16677 5.68414L7.8165 7.09036C7.8165 7.09036 8.79348 7.31425 8.77287 7.32809C9.30619 7.4612 9.40258 7.81409 9.38642 8.09382L8.77209 10.5579C8.80887 10.5673 8.85648 10.5808 8.90898 10.6018C8.86509 10.5909 8.81821 10.5789 8.76982 10.5673L7.90872 14.0192C7.84345 14.1812 7.67806 14.4242 7.30529 14.3319C7.3184 14.351 6.34819 14.093 6.34819 14.093L5.69448 15.6002L7.40806 16.0273C7.72684 16.1072 8.03927 16.1908 8.34677 16.2695L7.80184 18.4572L9.11709 18.7853L9.65675 16.6208H9.65676C10.0055 16.7153 10.3552 16.8061 10.7059 16.893L10.168 19.0474L11.4848 19.3755L12.0297 17.1919C14.2751 17.6168 15.9635 17.4454 16.6742 15.4148C17.2469 13.7798 16.6457 12.8367 15.4643 12.2217C16.3247 12.0234 16.9728 11.4575 17.1456 10.2886L17.1459 10.2887ZM14.1386 14.5087C13.7317 16.1437 10.9785 15.2598 10.0859 15.0382L10.809 12.1399C11.7016 12.3626 14.5639 12.8036 14.1386 14.5087ZM14.5428 10.2669C14.1716 11.7541 11.88 10.9985 11.1367 10.8133L11.7923 8.18457C12.5356 8.3698 14.9295 8.71552 14.5428 10.2669Z" fill="#3D53F5"/>
</svg>
