<svg width="24" height="24" viewBox="0 0 24 24" fill="none" xmlns="http://www.w3.org/2000/svg">
<path fill-rule="evenodd" clip-rule="evenodd" d="M6.363 10.1375L2.66617 4.45681C4.96943 1.59225 8.42432 0.0148105 11.9566 0.000294155C14.0034 -0.0142222 16.0938 0.508366 17.9954 1.60677C20.0955 2.82614 21.6923 4.57778 22.7084 6.59071L12.7744 6.06813C9.96305 5.90361 7.2872 7.48589 6.363 10.1375ZM7.95496 12.0005C7.95496 14.236 9.76466 16.0457 12.0002 16.0457C14.2357 16.0457 16.0454 14.236 16.0454 12.0005C16.0454 9.76495 14.2357 7.95525 12.0002 7.95525C9.76466 7.95525 7.95496 9.76012 7.95496 12.0005ZM23.1923 7.68428L16.4325 8.03267C18.2664 10.1763 18.2954 13.2682 16.7519 15.6392L11.3276 23.9813C13.5776 24.1023 15.8954 23.6087 17.9954 22.3893C23.1923 19.3893 25.2971 13.0989 23.1923 7.68428ZM6.46945 14.3037L1.95487 5.42457C0.720978 7.31169 0 9.57624 0 12.0005C0 18.0006 4.39361 22.97 10.1372 23.8506L13.2195 17.8118C10.4324 18.3344 7.74205 16.8054 6.46945 14.3037Z" fill="#3D53F5"/>
</svg>
