<svg width="24" height="24" viewBox="0 0 24 24" fill="none" xmlns="http://www.w3.org/2000/svg">
<path fill-rule="evenodd" clip-rule="evenodd" d="M23.5446 7.48608L12.5759 0.173585C12.2015 -0.0568057 11.8019 -0.0589151 11.4241 0.173585L0.455344 7.48608C0.174094 7.67354 0 8.00841 0 8.34319V15.6556C0 15.9905 0.174094 16.3253 0.455391 16.5128L11.4241 23.8263C11.7985 24.0567 12.1981 24.0588 12.5759 23.8263L23.5447 16.5128C23.8259 16.3254 24 15.9905 24 15.6556V8.34319C24 8.00841 23.8259 7.67354 23.5446 7.48608ZM13.0312 2.96094L21.1072 8.34491L17.5045 10.7556L13.0312 7.769V2.96094ZM10.9704 2.96094V7.769L6.4972 10.7556L2.89453 8.34491L10.9704 2.96094ZM2.0625 10.2734L4.64733 12.0011L2.0625 13.7288V10.2734ZM10.9704 21.0408L2.89453 15.6568L6.4972 13.2461L10.9704 16.2327V21.0408ZM11.9984 14.437L8.35547 11.9995L11.9984 9.56201L15.6413 11.9995L11.9984 14.437ZM13.0312 21.0408V16.2327L17.5045 13.2461L21.1072 15.6568L13.0312 21.0408V21.0408ZM21.9364 13.7288L19.3516 12.0011L21.9364 10.2734V13.7288Z" fill="#3D53F5"/>
</svg>
