<svg width="24" height="25" viewBox="0 0 24 25" fill="none" xmlns="http://www.w3.org/2000/svg">
<path fill-rule="evenodd" clip-rule="evenodd" d="M11.895 10.0125L10.2876 10.8486C9.83127 9.90122 9.06627 9.88428 8.95885 9.88428C7.88804 9.88428 7.35143 10.5912 7.35143 12.0056C7.35143 13.1461 7.79708 14.1269 8.95885 14.1269C9.65901 14.1269 10.1516 13.7838 10.438 13.0982L11.9163 13.8482C11.6177 14.4051 10.6732 15.7343 8.76627 15.7343C7.67272 15.7343 5.18756 15.2349 5.18756 12.0061C5.18756 9.16621 7.26821 8.27734 8.70192 8.27734C10.1884 8.27686 11.2519 8.85557 11.895 10.0125ZM18.8155 10.0125L17.2294 10.8486C16.7697 9.89202 15.9849 9.88428 15.8794 9.88428C14.8081 9.88428 14.272 10.5912 14.272 12.0056C14.272 13.1451 14.7186 14.1269 15.8794 14.1269C16.5786 14.1269 17.0721 13.7838 17.3571 13.0982L18.8571 13.8482C18.7555 14.0296 17.8221 15.7343 15.7076 15.7343C14.6097 15.7343 12.1289 15.2567 12.1289 12.0061C12.1289 9.16718 14.2081 8.27734 15.6433 8.27734C17.1292 8.27686 18.1875 8.85557 18.8155 10.0125ZM11.9787 0.00390625C5.06806 0.00390625 0 5.57133 0 12.0039C0 18.705 5.49677 24.0039 11.9787 24.0039C18.2656 24.0039 24 19.1231 24 12.0039C24 5.33278 18.841 0.00390625 11.9787 0.00390625ZM12.0208 21.8173C6.57532 21.8173 2.16435 17.3154 2.16435 12.0039C2.16435 6.90294 6.29806 2.16826 12.0218 2.16826C17.4668 2.16826 21.8356 6.49697 21.8356 12.0034C21.8352 17.8916 17.0124 21.8173 12.0208 21.8173Z" fill="#3D53F5"/>
</svg>
