<svg width="24" height="24" viewBox="0 0 24 24" fill="none" xmlns="http://www.w3.org/2000/svg">
<path fill-rule="evenodd" clip-rule="evenodd" d="M12.1018 0C5.53393 0 0 5.27679 0 11.7911C0 12 0.00535714 24 0.00535714 24L12.1018 23.9893C18.675 23.9893 24 18.5089 24 11.9946C24 5.48036 18.675 0 12.1018 0ZM12 18.8571C10.9607 18.8571 9.96964 18.6268 9.08571 18.2089L4.74107 19.2857L5.96786 15.2679C5.44286 14.2982 5.14286 13.1839 5.14286 12C5.14286 8.2125 8.2125 5.14286 12 5.14286C15.7875 5.14286 18.8571 8.2125 18.8571 12C18.8571 15.7875 15.7875 18.8571 12 18.8571Z" fill="#3D53F5"/>
</svg>
