<svg width="24" height="24" viewBox="0 0 24 24" fill="none" xmlns="http://www.w3.org/2000/svg">
<path fill-rule="evenodd" clip-rule="evenodd" d="M15.932 11.4C15.932 12.132 15.392 12.732 14.708 12.732C14.036 12.732 13.484 12.132 13.484 11.4C13.484 10.668 14.024 10.068 14.708 10.068C15.392 10.068 15.932 10.668 15.932 11.4ZM10.328 10.068C9.644 10.068 9.104 10.668 9.104 11.4C9.104 12.132 9.656 12.732 10.328 12.732C11.012 12.732 11.552 12.132 11.552 11.4C11.564 10.668 11.012 10.068 10.328 10.068ZM23 2.472V24C19.9768 21.3284 20.9437 22.2127 17.432 18.948L18.068 21.168H4.46C3.104 21.168 2 20.064 2 18.696V2.472C2 1.104 3.104 0 4.46 0H20.54C21.896 0 23 1.104 23 2.472ZM19.58 13.848C19.58 9.984 17.852 6.852 17.852 6.852C16.124 5.556 14.48 5.592 14.48 5.592L14.312 5.784C16.352 6.408 17.3 7.308 17.3 7.308C14.4495 5.7457 11.1011 5.74542 8.336 6.96C7.892 7.164 7.628 7.308 7.628 7.308C7.628 7.308 8.624 6.36 10.784 5.736L10.664 5.592C10.664 5.592 9.02 5.556 7.292 6.852C7.292 6.852 5.564 9.984 5.564 13.848C5.564 13.848 6.572 15.588 9.224 15.672C9.224 15.672 9.668 15.132 10.028 14.676C8.504 14.22 7.928 13.26 7.928 13.26C8.10453 13.3836 8.39562 13.5437 8.42 13.56C10.4455 14.6943 13.3226 15.0659 15.908 13.98C16.328 13.824 16.796 13.596 17.288 13.272C17.288 13.272 16.688 14.256 15.116 14.7C15.476 15.156 15.908 15.672 15.908 15.672C18.56 15.588 19.58 13.848 19.58 13.848Z" fill="#3D53F5"/>
</svg>
