<svg width="24" height="24" viewBox="0 0 24 24" fill="none" xmlns="http://www.w3.org/2000/svg">
<path fill-rule="evenodd" clip-rule="evenodd" d="M15.1211 12.9288C15.8011 14.8989 16.2611 16.923 16.5011 19C18.5921 17.6519 20.0111 15.4351 20.2811 12.9288C18.2541 12.79 16.8931 12.8019 15.1211 12.9288M13.9414 9.91314C14.1414 10.3395 14.3684 10.8787 14.6214 11.5308C16.4424 11.359 18.4744 11.361 20.3014 11.4509C20.1944 9.64054 19.5414 8.02887 18.3414 6.61792C17.4744 7.90905 16.0084 9.00745 13.9414 9.91314M9.96 3.96178C11.133 5.17302 12.22 6.68483 13.22 8.49521C15.033 7.73631 16.4 6.77071 17.32 5.5994C15.089 3.75607 12.34 3.30972 9.96 3.96178M6.89844 18.5806C9.29844 20.4469 12.2744 20.7994 14.9384 19.7789C14.6714 17.5022 14.1514 15.2984 13.3784 13.1685C10.7784 13.7326 8.03344 16.3399 6.89844 18.5806M3.92188 9.95307C5.09187 10.0589 8.28987 10.0749 11.5619 9.09432C10.5489 7.29692 9.43488 5.79909 8.22188 4.60083C6.07488 5.68626 4.52587 7.69834 3.92188 9.95307M5.76 17.5021C7.012 15.0537 10.125 12.3975 12.86 11.7904C12.66 11.3241 12.467 10.9047 12.28 10.5322C9.508 11.418 6.348 11.7505 3.68 11.6107C3.68 13.7416 4.029 15.543 5.76 17.5021M2 12.0101C2 8.26253 4.008 5.09213 6.98 3.36263C13.603 -0.490778 22 4.2803 22 12.0101C22 15.7577 19.992 18.9281 17.02 20.6576C13.948 22.445 10.061 22.45 6.98 20.6576C4.005 18.9271 2 15.7547 2 12.0101" fill="#3D53F5"/>
</svg>
