<svg width="24" height="24" viewBox="0 0 24 24" fill="none" xmlns="http://www.w3.org/2000/svg">
<path fill-rule="evenodd" clip-rule="evenodd" d="M22.7248 9.31411L20.6695 13.436L18.6104 9.31411H17.2039L17.6128 10.0867C17.1814 9.37412 16.2663 9.11158 15.2386 9.11158C14.0459 9.11158 12.692 9.43788 12.557 10.7281H13.8209C13.8734 10.2105 14.4098 9.91045 15.1336 9.91045C16.1088 9.91045 16.6714 10.2705 16.6714 11.1481V11.2757C16.195 11.2757 15.6212 11.2794 15.1074 11.2907C13.5171 11.3244 12.497 11.6657 12.2307 12.5809C12.2682 12.3858 12.2869 12.1833 12.2869 11.9733C12.2869 10.0192 10.7979 9.11533 9.45898 9.11533C8.6601 9.11533 7.84623 9.32161 7.25738 10.023V7H6.05345V13.3572C6.05345 13.7436 6.03094 14.2161 6.01219 14.5987H7.19362C7.21988 14.3624 7.23488 14.1149 7.23488 13.8673C7.74496 14.4899 8.56259 14.8012 9.43647 14.8012C10.8204 14.8012 11.8706 13.9798 12.1857 12.7684C12.1669 12.8734 12.1594 12.9859 12.1594 13.106C12.1594 14.0098 12.9508 14.7937 14.4323 14.7937C15.4299 14.7937 16.15 14.5799 16.7539 13.8373C16.7539 14.0849 16.7651 14.3361 16.7951 14.5949H17.9128C17.8865 14.2874 17.8753 13.9386 17.8753 13.5898V11.1294C17.8753 10.7806 17.8115 10.4843 17.6953 10.2368L20.0019 14.5912L18.933 16.6203H20.2794L24 9.31411H22.7248ZM9.13643 13.9761C8.02625 13.9761 7.25363 13.1697 7.25363 11.9583C7.25363 10.7431 8.02625 9.94046 9.13643 9.94046C10.2541 9.94046 11.0192 10.7431 11.0192 11.9583C11.0192 13.1697 10.2541 13.9761 9.13643 13.9761ZM16.6714 12.2021C16.6714 13.3272 16 14.0173 14.7361 14.0173C13.7947 14.0173 13.4233 13.5148 13.4233 13.0497C13.4233 12.3333 14.1022 12.1346 15.1936 12.1008C15.685 12.082 16.2288 12.0783 16.6714 12.0783V12.2021ZM1.22269 12.2621H6.05345V11.9433C6.05345 10.0042 4.812 9.11533 3.11299 9.11533C0.982653 9.11533 0 10.2705 0 12.0258C0 13.6198 0.948898 14.8012 3.09423 14.8012C4.27192 14.8012 5.64463 14.3624 5.88467 13.0722H4.64323C4.19316 14.4149 1.35396 14.4487 1.22269 12.2621ZM4.78575 11.4594H1.24519C1.50398 9.33662 4.69948 9.40788 4.78575 11.4594Z" fill="#3D53F5"/>
</svg>
