<svg width="24" height="24" viewBox="0 0 24 24" fill="none" xmlns="http://www.w3.org/2000/svg">
<path fill-rule="evenodd" clip-rule="evenodd" d="M1.01703 10.6914C1.02813 10.6752 1.04003 10.6591 1.05123 10.6429C1.04913 10.6591 1.04673 10.6752 1.04473 10.6914H1.01703ZM23.2858 11.4034C23.2858 9.27284 22.9106 7.3164 21.8922 5.4806C19.909 1.92961 16.3967 2.63375e-05 12.2829 2.63375e-05C5.51206 -0.0133769 1.72117 5.09098 1.0166 10.6296C3.06962 7.6629 6.68143 4.75658 11.6799 4.58287C11.6799 4.58287 16.9863 4.58287 16.4905 9.66144H7.98149C8.28967 7.85244 8.87927 6.80727 9.64306 5.84243C6.0117 7.53081 3.74709 10.4922 3.8007 14.9545C3.84086 18.4116 6.22606 21.9627 9.64311 23.2759C13.6765 24.8169 18.971 23.6243 21.2624 22.2441V17.1923C17.3496 19.9259 8.15574 20.1403 8.08877 13.9227H23.2859V11.4034H23.2858Z" fill="#3D53F5"/>
</svg>
