<svg width="24" height="24" viewBox="0 0 24 24" fill="none" xmlns="http://www.w3.org/2000/svg">
<path fill-rule="evenodd" clip-rule="evenodd" d="M22.5714 16.9286C22.4777 17.5045 21.8348 22.8214 21.7411 24C15.4261 23.7697 9.96098 23.7459 2 24V22.6339C4.4352 22.1546 5.24787 22.2043 5.26786 20.7455C5.36391 16.8711 5.45664 7.66645 5.26786 3.49554C5.21273 1.97089 4.61804 2.0617 2 1.56696V0.200893C5.95818 0.327214 15.7107 0.658982 21.4464 0C21.2589 2.04911 21.0312 6.77679 21.0312 6.77679H19.7857C19.1936 4.48205 18.7808 1.92857 16.8527 1.92857H9.51339C8.96429 1.92857 8.9375 2.11607 8.9375 2.45089V11.2232C12.0446 11.25 13.6786 11.0893 13.6786 11.0893C15.2734 11.0383 15.155 10.6338 15.8616 7.5937H17.2411C17.005 13.0232 17.0316 10.906 17.1473 16.1785H15.7679C15.2774 14.0311 15.2822 12.9082 13.6517 12.8839C13.6517 12.8839 12.4999 12.7767 8.93745 12.7767V20.2232C8.93745 21.616 9.70084 22.2723 11.308 22.2723H16.0893C19.4984 22.2723 19.6552 20.9332 21.3795 16.9285H22.5714V16.9286Z" fill="#3D53F5"/>
</svg>
