<svg width="24" height="24" viewBox="0 0 24 24" fill="none" xmlns="http://www.w3.org/2000/svg">
<path fill-rule="evenodd" clip-rule="evenodd" d="M16.0467 8.00156V8.00156C18.2563 8.00156 20.0475 6.21035 20.0475 4.00078C20.0475 1.79121 18.2563 0 16.0467 0H8.04512H8.04512C5.83684 9.65269e-08 4.04668 1.79016 4.04668 3.99844C4.04668 6.20671 5.83684 7.99687 8.04512 7.99687V7.99687C5.83555 7.99687 4.04434 9.78809 4.04434 11.9977C4.04434 14.2072 5.83555 15.9984 8.04512 15.9984V15.9984C5.83555 15.9971 4.04329 17.7873 4.04199 19.9969C4.0407 22.2064 5.83086 23.9987 8.04043 24C10.25 24.0013 12.0423 22.2111 12.0436 20.0016V8.00156H16.0467ZM16.0482 8H16.0482C13.84 8 12.0498 9.79016 12.0498 11.9984C12.0498 14.2067 13.84 15.9969 16.0482 15.9969C18.2565 15.9969 20.0467 14.2067 20.0467 11.9984V11.9989C20.0467 9.79074 18.2569 8.00052 16.0487 8L16.0482 8Z" fill="#3D53F5"/>
</svg>
