<svg width="24" height="24" viewBox="0 0 24 24" fill="none" xmlns="http://www.w3.org/2000/svg">
<path fill-rule="evenodd" clip-rule="evenodd" d="M23.1806 10.9673C23.1467 10.7491 23.1127 10.623 23.1127 10.623C23.1127 10.623 23.0255 10.72 22.8848 10.9091C22.8412 10.3903 22.7491 9.88121 22.6036 9.37697C22.4242 8.75151 22.1915 8.14545 21.9006 7.56364C21.7164 7.17576 21.503 6.80727 21.2558 6.45818C21.1685 6.32727 21.0764 6.19636 20.9842 6.07515C20.5576 5.37697 20.063 4.94545 19.4958 4.13576C19.1273 3.51515 18.8703 2.83152 18.7491 2.11879C18.5939 2.5503 18.4727 2.99152 18.3903 3.44242C17.8036 2.85091 17.2994 2.43394 16.9891 2.14788C15.4861 0.732121 15.6606 0 15.6606 0C15.6606 0 12.8339 3.15636 14.0558 6.44364C14.4776 7.55879 15.2097 8.53333 16.16 9.25091C17.343 10.2303 18.623 10.9964 19.297 12.9648C18.7539 11.9321 17.9345 11.0642 16.9309 10.4679C17.2315 11.1806 17.3867 11.9515 17.3818 12.7224C17.3818 15.68 14.977 18.08 12.0194 18.0752C11.617 18.0752 11.2194 18.0315 10.8315 17.9394C10.3709 17.8521 9.92485 17.7018 9.50303 17.4885C8.87758 17.1103 8.33939 16.6109 7.91273 16.0194L7.90303 16.0048L8 16.0388C8.22303 16.1164 8.44606 16.1745 8.67879 16.2182C9.58545 16.4121 10.5358 16.3006 11.3745 15.8982C12.223 15.4279 12.7321 15.0788 13.1491 15.2194H13.1588C13.5661 15.3503 13.8861 14.9527 13.5952 14.5406C13.0909 13.8909 12.2667 13.5709 11.4521 13.7164C10.6036 13.8376 9.82788 14.4436 8.71758 13.857C8.64485 13.8182 8.57697 13.7794 8.50909 13.7358C8.43152 13.6921 8.74667 13.7988 8.67394 13.7503C8.43152 13.6291 8.19879 13.4885 7.97576 13.3333C7.96121 13.3188 8.14545 13.3867 8.12606 13.3721C7.84 13.1782 7.59273 12.9261 7.39879 12.6352C7.2 12.2764 7.18061 11.84 7.3503 11.4667C7.45212 11.2824 7.61212 11.1321 7.80121 11.0448C7.94667 11.1176 8.03394 11.1709 8.03394 11.1709C8.03394 11.1709 7.97091 11.0497 7.93212 10.9867C7.94667 10.9818 7.95636 10.9867 7.97091 10.977C8.09697 11.0303 8.37333 11.1709 8.52364 11.2582C8.62545 11.3115 8.70788 11.3891 8.77576 11.4861C8.77576 11.4861 8.82424 11.4618 8.7903 11.3552C8.73697 11.2242 8.6497 11.1127 8.52849 11.0352H8.53818C8.6497 11.0933 8.75636 11.1612 8.85818 11.2339C8.9503 11.0206 8.99394 10.7879 8.98424 10.5552C8.99394 10.4291 8.97455 10.2982 8.93091 10.177C8.89212 10.0994 8.95515 10.0703 9.02303 10.1527C9.01333 10.0897 8.98909 10.0315 8.96485 9.97333V9.96848C8.96485 9.96848 9.00364 9.91515 9.02303 9.89576C9.07152 9.84727 9.12485 9.80364 9.18788 9.76485C9.53697 9.54667 9.90545 9.35758 10.2885 9.20242C10.5988 9.06667 10.8558 8.96485 10.9091 8.93091C10.9867 8.88242 11.0594 8.82424 11.1273 8.76121C11.3842 8.54303 11.5636 8.23758 11.6218 7.90303C11.6267 7.85939 11.6315 7.81576 11.6364 7.76727V7.69455C11.5927 7.52485 11.3018 7.39879 9.77455 7.25333C9.23636 7.16606 8.80485 6.76364 8.68364 6.2303V6.22545C8.97455 5.46424 9.49818 4.81455 10.177 4.36848C10.2158 4.33455 10.0218 4.37818 10.0606 4.34424C10.1915 4.28121 10.3224 4.22303 10.4582 4.17455C10.5261 4.14545 10.1673 4.0097 9.84727 4.04364C9.65333 4.05333 9.45939 4.10182 9.28 4.17939C9.35758 4.11636 9.58061 4.02909 9.52727 4.02909C9.12 4.10667 8.72727 4.25697 8.36848 4.46545C8.36848 4.42667 8.37333 4.39273 8.39273 4.35879C8.10667 4.48 7.85939 4.67394 7.66545 4.91636C7.6703 4.87273 7.67515 4.82909 7.67515 4.78545C7.54424 4.88242 7.42303 4.99394 7.32121 5.12L7.31636 5.12485C6.47273 4.8 5.55636 4.72242 4.66909 4.89697L4.65939 4.89212H4.66909C4.48485 4.74182 4.32485 4.56727 4.19879 4.36364L4.18909 4.36848L4.1697 4.35879C4.11152 4.27152 4.05333 4.17455 3.9903 4.06788C3.94667 3.9903 3.90303 3.90303 3.85939 3.81576C3.85939 3.81091 3.85455 3.80606 3.8497 3.80606C3.8303 3.80606 3.82061 3.88848 3.80606 3.86909V3.86424C3.65091 3.46182 3.57818 3.0303 3.59273 2.59394L3.58303 2.59879C3.33576 2.76848 3.14667 3.01576 3.04485 3.30182C3.00121 3.40364 2.96727 3.46182 2.93818 3.52V3.49576C2.94303 3.44242 2.96727 3.33576 2.96242 3.34545C2.95758 3.35515 2.95273 3.36 2.94788 3.36485C2.87515 3.44727 2.80727 3.54424 2.75879 3.64606C2.71515 3.73818 2.67636 3.83515 2.64727 3.93212C2.64242 3.94667 2.64727 3.91758 2.64727 3.88364C2.64727 3.8497 2.65212 3.78667 2.64727 3.80121L2.63273 3.83515C2.30788 4.55758 2.10424 5.32848 2.03152 6.11879C2.01212 6.25455 2.00242 6.3903 2.00727 6.52121V6.53091C1.77455 6.78303 1.57091 7.06424 1.39152 7.36C0.804848 8.34909 0.368485 9.42061 0.0921212 10.5406C0.286061 10.1139 0.518788 9.70667 0.785455 9.32364C0.266667 10.6376 0 12.0388 0 13.4545C0.0872727 13.0376 0.203636 12.6303 0.339394 12.2279C0.25697 13.9006 0.57697 15.5685 1.28 17.0909C2.22061 19.2 3.78182 20.9697 5.75515 22.1673C6.56 22.7103 7.43758 23.1321 8.36364 23.4182C8.48485 23.4618 8.61091 23.5055 8.73697 23.5491C8.69818 23.5345 8.65939 23.5152 8.62061 23.5006C9.71636 23.8303 10.8606 24 12.0048 24C16.063 24 17.4012 22.4533 17.5224 22.303C17.7212 22.1236 17.8861 21.9055 18.0024 21.6582C18.08 21.6242 18.1576 21.5903 18.24 21.5564L18.2885 21.5321L18.3806 21.4885C18.9915 21.2024 19.5685 20.8388 20.0921 20.417C20.8824 19.8497 21.4448 19.0255 21.6873 18.0848C21.8327 17.7406 21.8376 17.3576 21.7067 17.0085C21.7503 16.9406 21.7891 16.8727 21.8376 16.8C22.7103 15.3988 23.2048 13.7988 23.2727 12.1503V12.0145C23.2727 11.6606 23.2436 11.3115 23.1806 10.9673ZM8.72061 6.23515C8.68984 6.28848 8.65138 6.34667 8.62061 6.40485C8.65138 6.34667 8.68214 6.29333 8.72061 6.23515Z" fill="#3D53F5"/>
</svg>
