<svg width="24" height="24" viewBox="0 0 24 24" fill="none" xmlns="http://www.w3.org/2000/svg">
<path fill-rule="evenodd" clip-rule="evenodd" d="M18.1453 0H5.33906C3.58125 0 3 1.32656 3 2.16094V22.4953C3 23.4469 3.56719 23.7938 3.85312 23.9062C4.14375 24.0234 4.92188 24.1219 5.39531 23.5734C11.4375 16.5703 11.5406 16.4531 11.5406 16.4531C11.6859 16.2938 11.7 16.3078 11.8594 16.3078H15.7688C17.4141 16.3078 17.6719 15.1266 17.8453 14.4469L20.1234 3.05625C20.5219 1.06875 20.0203 0 18.1453 0V0ZM17.3797 3.46094L16.8453 6.25938C16.7891 6.56406 16.4 6.87813 16.0531 6.87813H11.0656C10.5031 6.87813 10.1 7.26719 10.1 7.82969V8.43906C10.1 9.00156 10.5031 9.40469 11.0656 9.40469H15.3031C15.6922 9.40469 16.0813 9.83594 15.9969 10.2578C15.9125 10.675 15.5047 12.7797 15.4625 13.0141C15.4203 13.2438 15.1438 13.6469 14.6703 13.6469H11.225C10.5922 13.6469 10.4187 13.7312 9.98281 14.2375C9.98281 14.2375 9.56562 14.7719 5.7875 19.3141C5.74531 19.3562 5.70312 19.3422 5.70312 19.3V3.41875C5.70312 3.05781 6.02187 2.64062 6.48125 2.64062H16.7469C17.1312 2.64062 17.4781 3.00156 17.3797 3.46094Z" fill="#3D53F5"/>
</svg>
