<svg width="24" height="24" viewBox="0 0 24 24" fill="none" xmlns="http://www.w3.org/2000/svg">
<path fill-rule="evenodd" clip-rule="evenodd" d="M12 2C17.523 2 22 6.59 22 12.253C22 16.782 19.138 20.624 15.167 21.981C14.66 22.082 14.48 21.762 14.48 21.489C14.48 21.151 14.492 20.047 14.492 18.675C14.492 17.719 14.172 17.095 13.813 16.777C16.04 16.523 18.38 15.656 18.38 11.718C18.38 10.598 17.992 9.684 17.35 8.966C17.454 8.707 17.797 7.664 17.252 6.252C17.252 6.252 16.414 5.977 14.505 7.303C13.706 7.076 12.85 6.962 12 6.958C11.15 6.962 10.295 7.076 9.497 7.303C7.586 5.977 6.746 6.252 6.746 6.252C6.203 7.664 6.546 8.707 6.649 8.966C6.01 9.684 5.619 10.598 5.619 11.718C5.619 15.646 7.954 16.526 10.175 16.785C9.889 17.041 9.63 17.493 9.54 18.156C8.97 18.418 7.522 18.871 6.63 17.304C6.63 17.304 6.101 16.319 5.097 16.247C5.097 16.247 4.122 16.234 5.029 16.87C5.029 16.87 5.684 17.185 6.139 18.37C6.139 18.37 6.726 20.2 9.508 19.58C9.513 20.437 9.522 21.245 9.522 21.489C9.522 21.76 9.338 22.077 8.839 21.982C4.865 20.627 2 16.783 2 12.253C2 6.59 6.478 2 12 2" fill="#3D53F5"/>
</svg>
