<svg width="24" height="24" viewBox="0 0 24 24" fill="none" xmlns="http://www.w3.org/2000/svg">
<path fill-rule="evenodd" clip-rule="evenodd" d="M4.96499 1.324C4.81996 0.907625 4.23048 0.907625 4.08077 1.324L1.4375 9.50178H7.61294C7.60826 9.50178 4.96499 1.324 4.96499 1.324ZM0.087138 13.617C-0.0344994 13.9912 0.101173 14.4076 0.419302 14.6462L12.017 23.2544L1.43451 9.5L0.087138 13.617ZM7.60992 9.5L12.0216 23.2544L16.4333 9.5H7.60992ZM23.9579 13.617L22.6106 9.5L12.0234 23.2544L23.6211 14.6462C23.9439 14.4076 24.0749 13.9912 23.9579 13.617ZM19.9619 1.324C19.8168 0.907625 19.2273 0.907625 19.0776 1.324L16.4297 9.50178H22.6051L19.9619 1.324Z" fill="#3D53F5"/>
</svg>
