<svg width="24" height="24" viewBox="0 0 24 24" fill="none" xmlns="http://www.w3.org/2000/svg">
<path fill-rule="evenodd" clip-rule="evenodd" d="M15.0779 14.2421C14.8145 14.3101 14.7788 14.3411 14.3969 14.3941C14.2374 14.4171 14.1167 14.3311 14.1147 14.1771C14.1105 13.8881 14.1136 13.4371 14.1147 13.1511C14.1147 13.0031 14.1745 12.9401 14.3675 12.8991C14.9425 12.7731 15.3129 12.4891 15.4283 11.8621C14.6068 11.8601 13.2343 11.8581 13.2343 11.8581C12.9647 11.8541 12.781 11.6761 12.781 11.4181C12.781 11.3781 12.7842 8.3801 12.781 8.3401C12.7454 8.0151 12.9741 7.8301 13.2186 7.8301C14.2616 7.8301 15.3045 7.8311 16.3475 7.8291C16.6245 7.8291 16.8543 8.0961 16.7662 8.3571C16.7934 8.4211 16.7829 11.8061 16.7829 11.8801C16.7819 12.8301 16.2814 13.6631 15.0779 14.2421C15.0957 14.2621 15.1157 14.2681 15.1377 14.2691C15.1157 14.2681 15.0947 14.2621 15.0779 14.2421M8.79826 14.398C8.67655 14.415 8.5968 14.351 8.55168 14.246C8.55168 13.923 8.55273 13.601 8.55273 13.278C8.56427 13.103 8.50132 12.971 8.7437 12.913C9.40789 12.753 9.69434 12.562 9.86327 11.862C9.7531 11.862 7.64512 11.869 7.53914 11.841C7.35657 11.793 7.21701 11.634 7.21701 11.456C7.21596 10.427 7.21806 9.397 7.21911 8.369C7.18659 8.01 7.39854 7.83 7.63253 7.83C8.68284 7.83 9.73211 7.831 10.7824 7.83C11.0605 7.829 11.2903 8.096 11.2011 8.358C11.2357 8.436 11.2179 11.789 11.2168 11.875C11.2074 13.053 10.3806 14.178 8.79826 14.398M20.8596 9.055C20.1524 5.383 17.0455 2 11.3627 2C11.3627 2 10.6051 2.094 10.3858 2.134C6.24962 2.881 3.32742 6.081 3.02522 9.947C2.64328 14.822 6.64625 19.079 11.8685 19.141C11.9744 19.142 12.0028 19.167 12.0017 19.27C12.0007 19.496 11.9933 21.779 12.0038 22C14.4455 21.052 17.4222 18.743 18.9185 16.688C20.8009 14.103 21.2772 11.228 20.8596 9.055" fill="#3D53F5"/>
</svg>
