<svg width="24" height="24" viewBox="0 0 24 24" fill="none" xmlns="http://www.w3.org/2000/svg">
<path fill-rule="evenodd" clip-rule="evenodd" d="M7.86965 2.12768C6.24177 2.20113 4.8308 2.59915 3.69148 3.73366C2.54818 4.87413 2.15514 6.29053 2.08151 7.90148C2.03574 8.90696 1.76808 16.5031 2.54421 18.4953C3.0676 19.8392 4.09846 20.8725 5.4547 21.3976C6.08754 21.6437 6.80994 21.8105 7.86966 21.8591C16.7305 22.2601 20.0151 22.0417 21.4002 18.4953C21.6459 17.864 21.8151 17.1424 21.8619 16.0853C22.2668 7.20177 21.7962 5.27621 20.2519 3.73371C19.027 2.51185 17.5862 1.68008 7.86959 2.12773M7.95303 20.0725C6.98287 20.0288 6.45649 19.867 6.10524 19.731C5.22165 19.3876 4.55796 18.7265 4.21666 17.8481C3.62561 16.3344 3.82163 9.14522 3.87437 7.98191C3.92611 6.84244 4.15696 5.80122 4.96095 4.99724C5.95599 4.00466 7.24158 3.5183 15.9949 3.91335C17.1372 3.96496 18.181 4.19524 18.987 4.99724C19.9821 5.98981 20.4756 7.28512 20.0736 16.0049C20.0298 16.9727 19.8676 17.4978 19.7313 17.8482C18.8308 20.1559 16.7591 20.4765 7.95301 20.0725M16.0896 6.69458C16.0896 7.35167 16.6239 7.88567 17.2836 7.88567C17.9433 7.88567 18.4787 7.35167 18.4787 6.69458C18.4787 6.0375 17.9433 5.50349 17.2836 5.50349C16.6239 5.50349 16.0896 6.0375 16.0896 6.69458M6.86259 11.9929C6.86259 14.8079 9.15018 17.0898 11.9721 17.0898C14.794 17.0898 17.0816 14.8079 17.0816 11.9929C17.0816 9.178 14.794 6.89707 11.9721 6.89707C9.15018 6.89707 6.86259 9.178 6.86259 11.9929M8.65565 11.9929C8.65565 10.1666 10.1403 8.68469 11.9721 8.68469C13.804 8.68469 15.2886 10.1666 15.2886 11.9929C15.2886 13.8203 13.804 15.3022 11.9721 15.3022C10.1403 15.3022 8.65565 13.8203 8.65565 11.9929" fill="#3D53F5"/>
</svg>
