<svg width="24" height="24" viewBox="0 0 24 24" fill="none" xmlns="http://www.w3.org/2000/svg">
<path fill-rule="evenodd" clip-rule="evenodd" d="M21 0H3C1.34464 0 0 1.34464 0 3V21C0 22.6554 1.34464 24 3 24H21C22.6554 24 24 22.6554 24 21V3C24 1.34464 22.6554 0 21 0ZM15.1992 4.3971C15.1992 3.33638 16.801 3.33638 16.801 4.3971V15.0846C16.801 16.1453 15.1992 16.1453 15.1992 15.0846V4.3971ZM11.2031 3.99475C11.2031 2.93404 12.8049 2.93404 12.8049 3.99475V15.593C12.8049 16.6537 11.2031 16.6537 11.2031 15.593V3.99475ZM7.2 4.3971C7.2 3.33638 8.80178 3.33638 8.80178 4.3971V15.0846C8.80178 16.1453 7.2 16.1453 7.2 15.0846V4.3971ZM3.19922 5.99866C3.19922 4.93795 4.801 4.93795 4.801 5.99866V13.1933C4.801 14.254 3.19922 14.254 3.19922 13.1933V5.99866V5.99866ZM20.5222 18.2036C16.6222 21.5786 7.57397 21.7072 3.48111 18.2036C2.67754 17.5179 3.71682 16.3019 4.5204 16.9876C8.05075 19.9501 16.0972 19.8751 19.4829 16.9876C20.2811 16.2965 21.3204 17.5126 20.5222 18.2036ZM20.8018 13.1933C20.8018 14.254 19.2 14.254 19.2 13.1933V5.99866C19.2 4.93795 20.8018 4.93795 20.8018 5.99866V13.1933Z" fill="#3D53F5"/>
</svg>
