<svg width="24" height="24" viewBox="0 0 24 24" fill="none" xmlns="http://www.w3.org/2000/svg">
<path fill-rule="evenodd" clip-rule="evenodd" d="M11.9786 2.58594C6.91071 2.58594 2.8125 6.69487 2.8125 11.7574C2.8125 16.8199 6.91071 20.9342 11.9786 20.9342C17.0464 20.9342 21.15 16.8252 21.15 11.7627C21.15 6.69487 17.0411 2.58594 11.9786 2.58594ZM16.2321 15.4463C16.0607 16.1749 15.5089 16.5821 14.7696 16.7213C14.1214 16.8392 13.5804 16.8713 13.0607 16.4535C12.4286 15.9178 12.4179 15.0392 12.9857 14.4821C13.4357 14.0535 14.0732 13.9678 15.0214 13.7963C15.1821 13.7696 15.3214 13.7321 15.4339 13.5981C15.6054 13.4053 15.5518 13.491 15.5518 9.26956C15.5518 8.96956 15.4071 8.8892 15.1018 8.94278C14.8875 8.98027 10.1786 9.85885 10.1786 9.85885C9.91071 9.91777 9.81964 9.99813 9.81964 10.3035C9.81964 16.5231 9.84643 16.2392 9.75536 16.6517C9.64286 17.1338 9.34821 17.4981 8.95714 17.7017C8.5125 17.9481 7.70357 18.0553 7.275 17.9803C6.12857 17.766 5.72678 16.4428 6.50357 15.6821C6.95357 15.2535 7.59107 15.1678 8.53928 14.9963C8.7 14.9696 8.83928 14.9321 8.95178 14.7981C9.21964 14.4928 9 7.99456 9.09107 7.63563C9.1125 7.49635 9.17143 7.37849 9.27857 7.29278C9.39107 7.2017 9.58928 7.14813 9.6375 7.14813C15.0482 6.13028 15.7071 6.0017 15.8036 6.0017C16.1089 5.98028 16.2857 6.16242 16.2857 6.46778C16.2804 15.6071 16.3071 15.1142 16.2321 15.4463ZM18.4929 0H5.50714C2.45893 0 0 2.45893 0 5.50714V18.4929C0 21.5411 2.45893 24 5.50714 24H18.4929C21.5464 24 24 21.5411 24 18.4929V5.50714C24 2.45893 21.5411 0 18.4929 0ZM11.9805 22.0703C6.28583 22.0703 1.66797 17.4525 1.66797 11.7578C1.66797 6.06317 6.28583 1.44531 11.9805 1.44531C17.6751 1.44531 22.293 6.06317 22.293 11.7578C22.293 17.4525 17.6751 22.0703 11.9805 22.0703Z" fill="#3D53F5"/>
</svg>
