<svg width="24" height="24" viewBox="0 0 24 24" fill="none" xmlns="http://www.w3.org/2000/svg">
<path fill-rule="evenodd" clip-rule="evenodd" d="M21.4286 24H2.57143C1.15714 24 0 22.8429 0 21.4286V2.57143C0 1.15714 1.15714 0 2.57143 0H21.4286C22.8429 0 24 1.15714 24 2.57143V21.4286C24 22.8429 22.8429 24 21.4286 24ZM10.6915 7.84967C10.6915 6.20502 9.74866 5.43359 8.56473 5.43359C7.18259 5.43359 6.42188 6.49431 6.42188 7.81752V16.1104C6.42188 17.4925 7.1558 18.5532 8.59152 18.5532C9.7433 18.5532 10.6915 17.8032 10.6915 16.1104V13.8711L13.9379 17.9265C14.5969 18.7247 16.0272 18.8265 16.9272 17.9265C17.7094 17.1175 17.7201 15.955 17.1415 15.2265L14.5112 11.8622L16.6808 8.71752C17.1844 7.99431 17.1897 6.86931 16.3808 6.08717C15.5022 5.23538 13.9915 5.16038 13.0915 6.46217L10.6915 9.92824V7.84967Z" fill="#3D53F5"/>
</svg>
