<svg width="24" height="24" viewBox="0 0 24 24" fill="none" xmlns="http://www.w3.org/2000/svg">
<path fill-rule="evenodd" clip-rule="evenodd" d="M0 4.28589H3.64687V14.0687C3.64687 15.6203 4.35 16.5437 4.92188 16.9281C4.32656 17.4484 2.52187 17.9078 1.1625 16.7968C0.365625 16.1406 0 15.0484 0 14.0312V4.28589ZM22.7766 12.4187V11.3875H23.8922V7.78745H22.6687C22.1953 5.61714 20.2688 4.00464 17.9672 4.00464C15.3141 4.00464 13.1531 6.16089 13.1531 8.8187V17.2187C13.9031 17.3265 14.8125 17.2046 15.5766 16.5625C16.3781 15.9062 16.7391 14.8187 16.7391 13.7968V13.4828H18.5578V9.88276H16.7391V8.79058C16.7391 7.1687 19.1859 7.1687 19.1859 8.79058V12.4046C19.1859 15.0578 21.3422 17.2187 24 17.2187V13.6328C23.3203 13.6328 22.7766 13.0843 22.7766 12.4187ZM8.98125 7.77808V13.075C8.98125 13.7968 7.86562 13.7968 7.86562 13.075V7.77808H4.26562V13.9984C4.26562 15.114 4.64062 16.5296 6.375 16.9937C8.10938 17.4531 9.10313 16.4968 9.10313 16.4968C9.00469 17.125 8.42344 17.589 7.46719 17.6828C6.74062 17.7578 5.81719 17.514 5.35781 17.3171V20.6125C6.53438 20.964 7.77188 21.0718 8.99531 20.8328C11.2031 20.4062 12.5953 18.564 12.5953 16.1078V7.75464H8.98125V7.77808Z" fill="#3D53F5"/>
</svg>
