<svg width="24" height="24" viewBox="0 0 24 24" fill="none" xmlns="http://www.w3.org/2000/svg">
<path fill-rule="evenodd" clip-rule="evenodd" d="M21.1667 2H2.83333H2.83333C2.3731 2 2 2.3731 2 2.83333V2.83333V21.1667V21.1667C2 21.6269 2.3731 22 2.83333 22H21.1667V22C21.6269 22 22 21.6269 22 21.1667V2.83333V2.83333C22 2.3731 21.6269 2 21.1667 2V2ZM18.6169 6.73828L17.5444 7.76662V7.76662C17.452 7.83704 17.4061 7.95283 17.4253 8.06745V15.6241V15.6241C17.4061 15.7387 17.452 15.8545 17.5444 15.925L18.5919 16.9533V17.1791H13.3236V16.9533L14.4069 15.9C14.5136 15.7933 14.5136 15.7616 14.5136 15.5991V9.49162L11.4961 17.1583H11.0886L7.57776 9.49162V14.6275V14.6275C7.54847 14.8432 7.62008 15.0605 7.77193 15.2166L9.18359 16.9283V17.1541H5.18359V16.9283L6.59276 15.2166V15.2166C6.74351 15.0603 6.81094 14.8416 6.77443 14.6275V8.68912V8.68912C6.79179 8.52457 6.72992 8.36155 6.60776 8.24995L5.35109 6.73828V6.51245H9.24609L12.2569 13.1158L14.9036 6.51245H18.6169V6.73828Z" fill="#3D53F5"/>
</svg>
