<svg width="24" height="24" viewBox="0 0 24 24" fill="none" xmlns="http://www.w3.org/2000/svg">
<path fill-rule="evenodd" clip-rule="evenodd" d="M4.53696 18.8416C4.58687 19.1002 4.43261 19.3452 4.17401 19.3996C3.92902 19.4495 3.67949 19.2952 3.62959 19.0366C3.57968 18.7917 3.73394 18.5331 3.97893 18.4786C4.22392 18.4242 4.48252 18.583 4.53696 18.8416ZM11.0292 22.0809C10.7434 22.2896 10.6663 22.6888 10.8613 22.9883C11.07 23.2877 11.4693 23.3648 11.7687 23.1561C12.0545 22.9474 12.1317 22.5482 11.923 22.2487C11.7324 21.9538 11.3286 21.8722 11.0292 22.0809ZM7.12751 1.10697C7.41333 1.04345 7.59481 0.757627 7.53129 0.471805C7.48139 0.172372 7.19556 -0.00910226 6.90974 0.0589507C6.62392 0.122467 6.44244 0.408289 6.49689 0.694111C6.5604 0.993544 6.84169 1.17502 7.12751 1.10697ZM1.60615 10.3123C1.15246 9.99922 0.530912 10.1172 0.217869 10.5845C-0.0951745 11.0382 0.0227839 11.6733 0.47647 11.9864C0.930156 12.3085 1.55171 12.1951 1.86475 11.7278C2.17779 11.2559 2.05983 10.6344 1.60615 10.3123ZM13.9479 2.55879C14.4288 2.27297 14.5695 1.65142 14.2972 1.18412C14.0114 0.703216 13.4035 0.548963 12.9362 0.834785C12.4689 1.12061 12.3146 1.74216 12.6005 2.22306C12.8727 2.69036 13.4806 2.84461 13.9479 2.55879ZM5.27647 5.19014C5.62581 4.94515 5.70294 4.46424 5.47156 4.11491C5.24018 3.76557 4.75927 3.68844 4.42354 3.91982C4.0742 4.16481 3.99708 4.64572 4.22845 4.99506C4.45983 5.34893 4.93621 5.42606 5.27647 5.19014ZM22.1672 12.2676C21.8315 12.3448 21.6092 12.6805 21.6863 13.0344C21.7498 13.3701 22.0901 13.5924 22.4258 13.5153C22.7615 13.4518 22.9838 13.1115 22.9067 12.7622C22.8387 12.4264 22.5029 12.2041 22.1672 12.2676ZM23.967 9.69065C23.9171 9.43205 23.6676 9.27779 23.4226 9.3277C23.164 9.37761 23.0097 9.64074 23.0596 9.89934C23.1095 10.1443 23.3591 10.3122 23.6177 10.2623C23.8627 10.1942 24.0305 9.94925 23.967 9.69065ZM20.3252 6.34704C19.9351 6.61925 19.8443 7.15007 20.1029 7.54024C20.3615 7.93041 20.8923 8.02114 21.2825 7.76254C21.6591 7.49033 21.7498 6.95952 21.4912 6.56935C21.2326 6.17464 20.7018 6.07483 20.3252 6.34704ZM20.0411 12.6715C21.2343 14.6269 20.7262 17.2084 18.8479 18.5286C18.0585 19.0867 17.1647 19.3316 16.2664 19.3044C15.722 21.4413 13.1178 22.2352 11.4982 20.7834C11.4483 20.8243 11.3802 20.8606 11.3303 20.915C9.5564 22.1445 7.14279 21.7044 5.9133 19.9033C5.47323 19.2545 5.25092 18.515 5.22824 17.7755C2.26113 17.281 1.14506 13.5109 3.36358 11.4375C2.07965 9.30972 3.39081 6.56492 5.78627 6.22465C6.92502 3.22125 10.6679 1.79668 13.2086 3.76567C16.2664 2.75395 19.3923 5.09951 19.1473 8.35244C21.012 8.92409 21.5428 11.3876 20.0411 12.6715ZM16.8636 16.0423C16.723 15.1077 15.008 15.8336 14.9082 14.8128C14.7676 13.361 16.8908 10.2261 16.723 9.00564C16.5687 7.9168 15.8428 7.68542 15.2077 7.67181C14.5997 7.65819 14.4409 7.76254 14.2368 7.8805C14.1052 7.95763 13.9373 8.10281 13.706 7.86689C13.4201 7.59468 13.2024 7.33608 12.8258 7.28164C12.2678 7.1909 12.0228 7.37237 11.619 7.72171C11.4647 7.85328 11.0746 8.30697 10.7116 8.13457C10.5574 8.05744 10.013 7.78523 9.62278 7.61736C8.88328 7.29525 7.80804 7.82606 7.41787 8.52474C6.83261 9.56368 5.69386 13.6559 5.526 14.2003C5.13583 15.4072 6.02052 16.4053 7.2001 16.3372C7.70369 16.31 8.03035 16.1285 8.35246 15.5478C8.53394 15.2121 10.2443 10.6616 10.3759 10.4393C10.4666 10.285 10.7797 10.0763 11.0383 10.2079C11.2969 10.3486 11.3513 10.6344 11.3105 10.893C11.2606 11.3331 10.0402 14.1096 9.99934 14.4181C9.84509 15.4571 11.2198 15.6249 11.7506 14.5996C11.9184 14.2775 13.8239 10.3985 13.9918 10.1399C14.1869 9.85404 14.3275 9.7633 14.5226 9.77691C14.6632 9.77691 14.8992 9.81774 14.8447 10.2714C14.7812 10.6979 13.2523 13.5516 13.0799 14.2503C12.8712 15.1848 13.3793 16.1285 14.2096 16.5459C14.7268 16.8045 17.0451 17.2582 16.8636 16.0423ZM17.1222 20.2298C16.6549 20.5656 16.537 21.2279 16.8636 21.7089C17.1857 22.1898 17.8345 22.3032 18.3154 21.9811C18.7963 21.6453 18.9097 20.983 18.5876 20.5021C18.2519 20.0211 17.6031 19.8896 17.1222 20.2298Z" fill="#3D53F5"/>
</svg>
