<svg width="24" height="24" viewBox="0 0 24 24" fill="none" xmlns="http://www.w3.org/2000/svg">
<path fill-rule="evenodd" clip-rule="evenodd" d="M20.4755 7.9C19.2609 13.117 15.5557 14 10.5787 14L9.07818 22H11.8254C12.326 22 12.5356 21.659 12.6279 21.179C13.3129 16.848 13.2166 17.557 13.2788 16.879C13.338 16.501 13.665 16 14.0491 16C17.6981 16 20.1184 14.945 20.8577 11.158C21.1204 9.811 21.0342 8.772 20.4755 7.9M9.13431 13.86L8.01193 20H4.53546C4.20646 20 3.95471 19.598 4.00686 19.274L6.60268 2.751C6.67089 2.319 7.04502 2 7.48434 2H13.7181C17.4092 2 19.8947 3.401 19.32 7.054C18.3139 13.56 12.7371 13 10.1995 13C9.76019 13 9.20351 13.428 9.1343 13.86" fill="#3D53F5"/>
</svg>
