<svg width="24" height="24" viewBox="0 0 24 24" fill="none" xmlns="http://www.w3.org/2000/svg">
<path fill-rule="evenodd" clip-rule="evenodd" d="M18.5 2.98125C16.6906 1.05938 14.3047 0 11.7781 0C6.40156 0 2.02344 4.50938 2.02344 10.05C2.02344 13.5703 4.73281 17.5406 5.9 19.0828C7.61563 21.3516 10.1844 24 11.7781 24C13.7281 24 17.0703 19.5844 17.4453 19.0781C18.5984 17.5266 21.2891 13.5328 21.2891 10.05C21.2891 7.40156 20.3 4.88906 18.5 2.98125ZM11.7781 23.15C9.78595 23.15 2.87189 15.3078 2.87189 10.0531C2.87189 5.01875 6.8047 0.851562 11.7781 0.851562C16.5031 0.851562 20.4359 5.02344 20.4359 10.0531C20.4406 15.3078 13.5266 23.15 11.7781 23.15ZM17 9.6955C17 12.4658 14.6047 14.8377 11.8063 14.8377C7.09063 14.8377 4.74219 9.76581 7.45156 6.31581V6.33456C7.45156 7.483 8.39375 8.41581 9.55156 8.41581C10.7094 8.41581 11.6516 7.483 11.6516 6.33456C11.6516 5.48144 11.1313 4.75019 10.3906 4.42675C13.9813 3.52675 17 6.26894 17 9.6955Z" fill="#3D53F5"/>
</svg>
