<svg width="24" height="24" viewBox="0 0 24 24" fill="none" xmlns="http://www.w3.org/2000/svg">
<path fill-rule="evenodd" clip-rule="evenodd" d="M11.876 2C6.399 2 2 6.43481 2 11.9587C2 16.0587 4.407 19.4892 7.893 21.0794C7.893 19.2119 7.88 19.4529 9.303 13.3805C8.521 11.8024 9.129 9.19673 10.88 9.19673C13.31 9.19673 11.659 12.7996 11.378 14.2174C11.129 15.3054 11.959 16.1424 12.955 16.1424C14.864 16.1424 16.108 13.7152 16.108 10.8706C16.108 8.69456 14.615 7.10437 12.042 7.10437C7.467 7.10437 6.307 12.1997 7.893 13.7989C8.292 14.4029 7.893 14.4312 7.893 15.2217C7.616 16.0577 5.403 14.8426 5.403 11.7076C5.403 8.86195 7.727 5.51518 12.457 5.51518C16.191 5.51518 18.681 8.27609 18.681 11.2054C18.681 15.1381 16.523 17.9837 13.37 17.9837C12.291 17.9837 11.295 17.3978 10.963 16.7282C10.36 19.0737 10.238 20.2626 9.303 21.5815C10.216 21.8326 11.129 22 12.125 22C17.602 22 22 17.5652 22 12.0423C21.752 6.43481 17.353 2.00005 11.876 2.00005" fill="#3D53F5"/>
</svg>
