<svg width="24" height="24" viewBox="0 0 24 24" fill="none" xmlns="http://www.w3.org/2000/svg">
<path fill-rule="evenodd" clip-rule="evenodd" d="M23.2233 19.0018H21.6536C21.5733 19.725 21.0911 20.6518 19.8858 20.6518C18.7875 20.6518 17.9947 19.8911 17.234 18.7339C19.6018 16.9018 21.2358 14.0464 21.2358 10.5375C21.2411 4.24286 16.0608 0 10.6072 0C5.26611 0 0.0161133 4.26964 0.0161133 10.5375C0.0161133 17.7214 7.05004 22.4089 13.3554 20.6625C14.4108 22.4625 15.8036 24 18.4554 24C22.8375 24 23.3197 19.9661 23.2233 19.0018ZM15.5358 15.9214C14.4911 14.3571 13.1947 13.125 10.634 13.125C9.00004 13.125 7.72504 13.6607 6.93754 14.3464L7.59111 15.6482C7.92326 15.4875 8.28754 15.4339 8.65183 15.4339C10.5536 15.4339 11.5286 17.0839 12.359 18.7179C11.8233 18.8786 11.25 18.9429 10.6072 18.9429C6.58933 18.9429 4.84826 16.1036 4.84826 10.5482C4.84826 4.95536 6.58933 2.08929 10.6072 2.08929C14.6893 2.08929 16.4304 4.95536 16.4304 10.5375C16.4358 12.7768 16.1411 14.5875 15.5358 15.9214Z" fill="#3D53F5"/>
</svg>
