<svg width="24" height="24" viewBox="0 0 24 24" fill="none" xmlns="http://www.w3.org/2000/svg">
<path fill-rule="evenodd" clip-rule="evenodd" d="M19.6031 7.80627C19.35 7.7219 19.0969 7.64221 18.8438 7.56721C18.8859 7.39377 18.9234 7.22034 18.9609 7.0469C19.5375 4.25315 19.1578 2.00784 17.8781 1.26721C16.6453 0.559399 14.6344 1.29534 12.6 3.06721C12.3984 3.24065 12.2016 3.42346 12.0141 3.60627C11.8875 3.4844 11.7562 3.36252 11.625 3.24534C9.49219 1.35159 7.35469 0.554712 6.075 1.30002C4.84687 2.01252 4.48125 4.12659 4.99687 6.77034C5.04844 7.03284 5.10469 7.29065 5.17031 7.55315C4.87031 7.63752 4.575 7.73127 4.29844 7.82971C1.79531 8.6969 0 10.0656 0 11.4813C0 12.9438 1.9125 14.411 4.51406 15.3016C4.725 15.3719 4.93594 15.4422 5.15156 15.5031C5.08125 15.7844 5.02031 16.061 4.96406 16.3469C4.47188 18.9485 4.85625 21.011 6.08437 21.7188C7.35 22.45 9.47813 21.7 11.55 19.886C11.7141 19.7406 11.8781 19.5906 12.0422 19.4313C12.2484 19.6328 12.4641 19.825 12.6797 20.0125C14.6859 21.7375 16.6687 22.436 17.8922 21.7281C19.1578 20.9969 19.5703 18.7797 19.0359 16.0797C18.9938 15.8735 18.9469 15.6625 18.8953 15.4469C19.0453 15.4047 19.1906 15.3578 19.3359 15.311C22.0406 14.4156 24 12.9672 24 11.4813C24 10.061 22.1531 8.68284 19.6031 7.80627V7.80627ZM13.2594 3.82647C15.0031 2.30772 16.6297 1.71241 17.3703 2.13897C18.1625 2.59366 18.4672 4.43116 17.9703 6.84522C17.9375 7.0046 17.9047 7.15928 17.8625 7.31397C16.8219 7.0796 15.7672 6.91085 14.7078 6.8171C14.0984 5.94522 13.4328 5.11085 12.7109 4.32803C12.8937 4.1546 13.0719 3.99053 13.2594 3.82647V3.82647ZM7.83751 13.9155C8.07657 14.3233 8.32032 14.7311 8.57814 15.1295C7.84689 15.0498 7.12032 14.9326 6.40314 14.778C6.60939 14.103 6.8672 13.4045 7.1672 12.692C7.38282 13.1045 7.60314 13.5123 7.83751 13.9155V13.9155ZM6.41718 8.27639C7.09218 8.12639 7.80936 8.00452 8.55468 7.91077C8.30624 8.29983 8.06249 8.69827 7.8328 9.10139C7.60311 9.49983 7.37811 9.90764 7.16718 10.3201C6.87186 9.6217 6.62343 8.93733 6.41718 8.27639ZM7.70312 11.5061C8.0125 10.8592 8.35 10.2264 8.70625 9.60295C9.0625 8.97952 9.44687 8.37483 9.85 7.77952C10.5531 7.72795 11.2703 7.69983 12.0016 7.69983C12.7328 7.69983 13.4547 7.72795 14.1531 7.77952C14.5516 8.37014 14.9313 8.97483 15.2922 9.59358C15.6531 10.2123 15.9906 10.8451 16.3094 11.4873C15.9953 12.1342 15.6578 12.7717 15.2969 13.3998C14.9406 14.0233 14.5609 14.628 14.1625 15.228C13.4641 15.2795 12.7375 15.303 12.0016 15.303C11.2656 15.303 10.5531 15.2795 9.86406 15.2373C9.45625 14.642 9.07188 14.0326 8.71094 13.4092C8.35 12.7858 8.01719 12.153 7.70312 11.5061ZM16.1672 13.9047C16.4063 13.4922 16.6313 13.075 16.8516 12.6531C17.1516 13.3328 17.4141 14.0219 17.6438 14.7297C16.9172 14.8938 16.1813 15.0203 15.4406 15.1047C15.6938 14.711 15.9328 14.3078 16.1672 13.9047ZM16.8422 10.3201C16.6219 9.90764 16.3969 9.49514 16.1625 9.09202C15.9328 8.69358 15.6937 8.29983 15.4453 7.91077C16.2 8.00452 16.9219 8.13108 17.5969 8.28577C17.3812 8.97952 17.1281 9.65452 16.8422 10.3201V10.3201ZM12.0109 5.04358C12.5031 5.57795 12.9672 6.14045 13.3984 6.7217C12.4703 6.67952 11.5375 6.67952 10.6094 6.7217C11.0687 6.11702 11.5422 5.55452 12.0109 5.04358V5.04358ZM6.57187 2.1719C7.35938 1.71252 9.10781 2.36877 10.95 4.00002C11.0672 4.10315 11.1844 4.21565 11.3063 4.32815C10.5797 5.11096 9.90937 5.94534 9.29531 6.81721C8.23594 6.91096 7.18594 7.07502 6.14531 7.30471C6.08437 7.06565 6.03281 6.8219 5.98125 6.57815C5.54062 4.3094 5.83125 2.59846 6.57187 2.1719ZM5.42344 14.5281C5.22656 14.4719 5.03437 14.411 4.84219 14.3453C3.84375 14.0313 2.70938 13.5344 1.88906 12.8828C1.41563 12.5547 1.09687 12.0485 1.00781 11.4813C1.00781 10.6235 2.48906 9.52659 4.62656 8.78127C4.89375 8.68752 5.16563 8.60315 5.4375 8.52346C5.75625 9.54065 6.14062 10.5391 6.58594 11.5047C6.13594 12.4844 5.74688 13.4969 5.42344 14.5281V14.5281ZM10.8872 19.122C10.1138 19.8298 9.21846 20.3923 8.24346 20.7767C7.72315 21.0251 7.12315 21.0486 6.58877 20.8376C5.84346 20.4064 5.53408 18.7517 5.95596 16.5251C6.00752 16.2626 6.06377 16.0001 6.1294 15.7423C7.1794 15.9673 8.23877 16.122 9.31221 16.2017C9.93096 17.0782 10.6106 17.9173 11.3372 18.7048C11.1872 18.8501 11.0372 18.9907 10.8872 19.122ZM12.0375 17.9842C11.5594 17.4686 11.0813 16.8967 10.6172 16.2826C11.0672 16.3014 11.5312 16.3108 12 16.3108C12.4828 16.3108 12.9562 16.3014 13.425 16.278C12.9937 16.8733 12.5297 17.4405 12.0375 17.9842V17.9842ZM18.1641 19.3873C18.1219 19.9592 17.8406 20.4936 17.3906 20.8545C16.6453 21.2858 15.0562 20.7233 13.3406 19.2514C13.1437 19.0826 12.9469 18.8998 12.7453 18.7123C13.4625 17.9201 14.1234 17.0811 14.7234 16.1998C15.7969 16.1108 16.8656 15.9467 17.9203 15.7076C17.9672 15.8998 18.0094 16.092 18.0469 16.2795C18.2766 17.292 18.3141 18.3467 18.1641 19.3873V19.3873ZM19.0156 14.35C18.8844 14.3922 18.7531 14.4344 18.6172 14.4719C18.2891 13.45 17.8859 12.4516 17.4219 11.4813C17.8719 10.525 18.2516 9.54065 18.5703 8.53284C18.8141 8.60315 19.0484 8.67815 19.2734 8.75315C21.4578 9.50315 22.9906 10.6188 22.9906 11.4719C22.9906 12.3906 21.3547 13.5766 19.0156 14.35ZM11.9984 13.6469C13.1844 13.6469 14.1453 12.686 14.1453 11.5C14.1453 10.3141 13.1844 9.35315 11.9984 9.35315C10.8125 9.35315 9.85156 10.3141 9.85156 11.5C9.85156 12.686 10.8125 13.6469 11.9984 13.6469Z" fill="#3D53F5"/>
</svg>
