<svg width="24" height="24" viewBox="0 0 24 24" fill="none" xmlns="http://www.w3.org/2000/svg">
<path fill-rule="evenodd" clip-rule="evenodd" d="M21.2935 9.69898C20.5372 9.69898 19.8717 10.0116 19.3826 10.5007C17.5826 9.25528 15.1574 8.4536 12.47 8.36788L13.8667 2.07545L18.3137 3.07377C18.3137 4.16284 19.2011 5.05024 20.2902 5.05024C21.3994 5.05024 22.2919 4.13763 22.2919 3.04856C22.2919 1.95948 21.4045 1.04688 20.2902 1.04688C19.5137 1.04688 18.8431 1.51578 18.5103 2.15612L13.5994 1.06704C13.3524 1.0015 13.1103 1.17797 13.0448 1.42503L11.512 8.36284C8.8448 8.47377 6.4448 9.27545 4.63976 10.5208C4.15068 10.0116 3.45993 9.69898 2.70363 9.69898C-0.0997355 9.69898 -1.01738 13.4603 1.549 14.746C1.45825 15.1444 1.41791 15.5679 1.41791 15.9914C1.41791 20.2166 6.17758 23.6402 12.0213 23.6402C17.8902 23.6402 22.6498 20.2166 22.6498 15.9914C22.6498 15.5679 22.6045 15.1242 22.4935 14.7259C25.0095 13.4351 24.0818 9.69898 21.2935 9.69898ZM5.61791 15.0133C5.61791 13.904 6.50531 13.0116 7.61959 13.0116C8.70867 13.0116 9.59606 13.899 9.59606 15.0133C9.59606 16.1023 8.70867 16.9897 7.61959 16.9897C6.51035 16.9948 5.61791 16.1023 5.61791 15.0133ZM16.4219 19.7294C14.5866 21.5647 9.40843 21.5647 7.57314 19.7294C7.37145 19.5529 7.37145 19.2403 7.57314 19.0386C7.74961 18.8621 8.06221 18.8621 8.23868 19.0386C9.64036 20.4756 14.2891 20.5008 15.7513 19.0386C15.9278 18.8621 16.2404 18.8621 16.4168 19.0386C16.6236 19.2403 16.6236 19.5529 16.4219 19.7294ZM16.3826 16.9948C15.2935 16.9948 14.4061 16.1074 14.4061 15.0183C14.4061 13.9091 15.2935 13.0166 16.3826 13.0166C17.4919 13.0166 18.3843 13.904 18.3843 15.0183C18.3793 16.1023 17.4919 16.9948 16.3826 16.9948Z" fill="#3D53F5"/>
</svg>
