<svg width="24" height="24" viewBox="0 0 24 24" fill="none" xmlns="http://www.w3.org/2000/svg">
<path fill-rule="evenodd" clip-rule="evenodd" d="M11.0758 12.0387C11.0758 11.5984 11.3952 11.1823 11.8645 11.1823C12.2952 11.1823 12.7065 11.4919 12.7065 11.9613C12.7065 12.4016 12.3968 12.8177 11.9274 12.8177C11.4919 12.8177 11.0758 12.4935 11.0758 12.0387V12.0387ZM24 12C24 18.629 18.629 24 12 24C5.37097 24 0 18.629 0 12C0 5.37097 5.37097 0 12 0C18.629 0 24 5.37097 24 12ZM22.7129 12C22.7129 6.08226 17.9177 1.2871 12 1.2871C6.08226 1.2871 1.2871 6.08226 1.2871 12C1.2871 17.9177 6.08226 22.7129 12 22.7129C17.9177 22.7129 22.7129 17.9177 22.7129 12ZM19.2048 16.6742C19.2048 16.8484 19.8339 17.1677 19.9935 17.2645C18.6677 19.2726 16.6161 20.7194 14.2887 21.2952L14.0758 20.4C14.0613 20.279 13.9839 20.2645 13.8726 20.2645C13.7806 20.2645 13.7274 20.4 13.7371 20.4677L13.95 21.3774C13.3065 21.5129 12.6532 21.5806 11.9952 21.5806C10.2387 21.5806 8.51129 21.0871 7.01129 20.1726C7.09355 20.0371 7.60161 19.3016 7.60161 19.1952C7.60161 19.1032 7.51936 19.021 7.42742 19.021C7.23871 19.021 6.8371 19.8242 6.71613 19.9839C4.69355 18.6435 3.23226 16.5677 2.67097 14.1968L3.59516 13.9935C3.70161 13.9645 3.73065 13.8871 3.73065 13.7903C3.73065 13.6984 3.59516 13.6452 3.51774 13.6548L2.6129 13.8629C2.49194 13.2484 2.42419 12.629 2.42419 12C2.42419 10.2048 2.93226 8.43871 3.88548 6.92419C4.02097 7.00645 4.66452 7.44677 4.77097 7.44677C4.8629 7.44677 4.94516 7.37903 4.94516 7.2871C4.94516 7.09839 4.23387 6.74032 4.07419 6.62903C5.43871 4.63548 7.51452 3.19839 9.87097 2.66613L10.0742 3.56129C10.1032 3.66774 10.1806 3.69677 10.2774 3.69677C10.3742 3.69677 10.4226 3.56129 10.4129 3.48387L10.2097 2.59839C10.8 2.49194 11.4 2.42419 12.0048 2.42419C13.8 2.42419 15.5516 2.93226 17.0806 3.88548C16.9887 4.02097 16.5581 4.65 16.5581 4.75645C16.5581 4.84839 16.6258 4.93065 16.7177 4.93065C16.9065 4.93065 17.2645 4.23387 17.3613 4.07419C19.3452 5.41452 20.7629 7.46129 21.3145 9.79355L20.5645 9.95323C20.4435 9.98226 20.429 10.0597 20.429 10.1661C20.429 10.2581 20.5645 10.3113 20.6323 10.3016L21.3968 10.1274C21.5177 10.7419 21.5855 11.371 21.5855 12C21.5855 13.7565 21.1016 15.4839 20.1919 16.9694C20.0565 16.9016 19.4952 16.5 19.3887 16.5C19.2871 16.5 19.2048 16.5823 19.2048 16.6742ZM17.5984 4.95484C16.9694 5.54516 11.1048 10.9403 10.9403 11.221L6.26613 18.9871C6.88065 18.4113 12.7597 12.9871 12.9097 12.7306L17.5984 4.95484Z" fill="#3D53F5"/>
</svg>
