<svg width="24" height="24" viewBox="0 0 24 24" fill="none" xmlns="http://www.w3.org/2000/svg">
<path fill-rule="evenodd" clip-rule="evenodd" d="M18.78 5.91667C18.78 5.83333 18.6947 5.75 18.6094 5.75C18.5241 5.75 16.9887 5.66667 16.9887 5.66667C16.9887 5.66667 15.8799 4.58333 15.7946 4.5C15.7093 4.41667 15.4534 4.41667 15.3681 4.41667C15.3681 4.41667 15.1122 4.5 14.771 4.58333C14.4298 3.58333 13.7474 2.58333 12.6386 2.58333H12.5533C12.1268 2.16667 11.7856 2 11.4444 2C8.8002 2 7.52075 5.25 7.17956 6.83333C6.0707 7.16667 5.38832 7.41667 5.30302 7.41667C4.70594 7.58333 4.70594 7.58333 4.62064 8.16667C4.53535 8.58333 3 19.8333 3 19.8333L14.6857 22L20.9977 20.6667C21.083 20.6667 18.78 6 18.78 5.91667ZM12.3827 5.16667V5.25C11.7003 5.41667 11.0179 5.66667 10.3356 5.83333C10.762 4.33333 11.4444 3.66667 12.1268 3.33333C12.2974 3.83333 12.3827 4.41667 12.3827 5.16667ZM11.3572 2.66675C11.4425 2.66675 11.6131 2.66675 11.6984 2.75008C10.8454 3.16675 9.90715 4.08341 9.56596 6.08341C8.96888 6.33341 8.4571 6.50008 7.94531 6.58341C8.3718 5.08341 9.39536 2.66675 11.3572 2.66675ZM11.7856 11.4167C11.7856 11.4167 11.1032 11.0833 10.2503 11.0833C9.05609 11.0833 8.9708 11.8333 8.9708 12C8.9708 13 11.7003 13.4167 11.7003 15.8333C11.7003 17.75 10.4208 19 8.8002 19C6.83837 19 5.72951 17.75 5.72951 17.75L6.24129 16C6.24129 16 7.26486 16.9167 8.20312 16.9167C8.8002 16.9167 9.05609 16.5 9.05609 16.1667C9.05609 14.8333 6.75307 14.75 6.75307 12.5C6.75307 10.6667 8.11783 8.83333 10.9326 8.83333C12.0415 8.83333 12.5533 9.16667 12.5533 9.16667L11.7856 11.4167V11.4167ZM13.0651 5.08333C13.0651 5 13.0651 4.91667 13.0651 4.91667C13.0651 4.25 12.9798 3.75 12.8092 3.33333C13.4062 3.41667 13.7474 4.08333 14.0033 4.83333C13.7474 4.83333 13.4062 4.91667 13.0651 5.08333Z" fill="#3D53F5"/>
</svg>
