<svg width="24" height="24" viewBox="0 0 24 24" fill="none" xmlns="http://www.w3.org/2000/svg">
<path fill-rule="evenodd" clip-rule="evenodd" d="M0.89697 7.31273L0 8.52H4.38788L4.72242 2.18303L0.89697 7.31273ZM18.7782 1.66424L12.543 1L19.1224 8.13697L18.7782 1.66424ZM5.00358 10.0315L4.46055 8.96484H0.0435791L10.9478 21.6533L5.00358 10.0315ZM5.10059 8.51839H18.8703L14.9188 4.22748L11.9903 1.04688L5.10059 8.51839ZM19.5152 8.96121L13.023 21.6545L23.9224 8.96606H19.5152V8.96121ZM19.7058 2.79401L19.25 2.18311L19.2936 3.02189L19.5894 8.52008H23.9676L19.7058 2.79401ZM5.06667 3.98182L4.84364 8.13212L11.4279 1L5.19273 1.66424L5.06667 3.98182ZM19.0176 8.96118H4.95703L7.01279 12.9806L11.9922 22.7212L19.0176 8.96118V8.96118Z" fill="#3D53F5"/>
</svg>
