<svg width="24" height="24" viewBox="0 0 24 24" fill="none" xmlns="http://www.w3.org/2000/svg">
<path fill-rule="evenodd" clip-rule="evenodd" d="M13.8986 18.37C17.8277 17.5518 18.3446 13.9691 16.8194 12.3118C16.0887 11.5036 14.9941 11.0551 12.3926 10.4273C11.2059 10.1512 8.95904 9.634 9.79108 8.4082C10.0647 7.95874 10.7498 7.68966 11.6619 7.64482C14.8056 7.43255 14.1479 10.8478 16.3177 9.84328C17.321 9.34997 17.2298 7.73451 16.1343 6.79174C13.7344 4.84243 6.87031 4.86535 6.87031 9.12574C6.87031 13.2715 12.8314 12.3507 14.3547 14.017C15.1431 14.9846 14.2999 16.5463 11.7987 16.4407C8.957 16.2334 9.71101 13.5685 7.96585 13.5685C6.64228 13.5685 6.18623 14.6458 6.87031 16.037C8.05402 18.4537 11.3832 18.9012 13.9442 18.37H13.8986V18.37H13.8986ZM15.1292 21.8251C13.7782 21.3837 13.8451 21.4116 12.6188 21.4664C7.78772 21.6916 4.05417 18.665 2.85323 14.5561C2.3536 12.7144 2.91809 11.0899 2.35157 9.30506C0.607418 4.63408 5.70812 0.502251 9.8349 2.5283C10.2008 2.70868 10.4288 2.75253 11.8436 2.75253C13.1215 2.75253 13.6232 2.79738 14.2617 2.97776C17.1368 3.6953 19.4647 5.53499 20.6961 8.09322C21.4724 9.66383 21.746 11.2803 21.5636 13.119C21.4724 14.1076 21.4724 14.1973 21.7004 14.7803C23.1243 18.8942 19.2286 22.8895 15.1738 21.8261H15.1292V21.8251H15.1292Z" fill="#3D53F5"/>
</svg>
