<svg width="24" height="24" viewBox="0 0 24 24" fill="none" xmlns="http://www.w3.org/2000/svg">
<path fill-rule="evenodd" clip-rule="evenodd" d="M9.36698 6.21053C8.20827 6.21053 7.26172 5.26397 7.26172 4.10526C7.26172 2.94655 8.20827 2 9.36698 2C10.5257 2 11.4722 2.94655 11.4722 4.10526V6.21053H9.36698ZM4.10526 16.7368C5.26397 16.7368 6.21053 15.7903 6.21053 14.6316V12.5263H4.10526C2.94655 12.5263 2 13.4729 2 14.6316C2 15.7903 2.94655 16.7368 4.10526 16.7368ZM9.36698 12.5264C8.20827 12.5264 7.26172 13.4721 7.26172 14.6298V19.8966C7.26172 21.0543 8.20827 22.0001 9.36698 22.0001C10.5257 22.0001 11.4722 21.0543 11.4722 19.8966V14.6298C11.4722 13.4721 10.5257 12.5264 9.36698 12.5264ZM11.4737 9.36842C11.4737 8.20971 10.5279 7.26316 9.37023 7.26316H4.10345C2.94574 7.26316 2 8.20971 2 9.36842C2 10.5271 2.94574 11.4737 4.10345 11.4737H9.37023C10.5279 11.4737 11.4737 10.5271 11.4737 9.36842ZM17.7895 9.36842C17.7895 8.20971 18.736 7.26316 19.8947 7.26316C21.0534 7.26316 22 8.20971 22 9.36842C22 10.5271 21.0534 11.4737 19.8947 11.4737H17.7895V9.36842ZM14.6326 11.4737C15.7913 11.4737 16.7379 10.5279 16.7379 9.37023V4.10345C16.7379 2.94574 15.7913 2 14.6326 2C13.4739 2 12.5273 2.94574 12.5273 4.10345V9.37023C12.5273 10.5279 13.4739 11.4737 14.6326 11.4737ZM14.6326 17.7896C15.7913 17.7896 16.7379 18.7361 16.7379 19.8948C16.7379 21.0535 15.7913 22.0001 14.6326 22.0001C13.4739 22.0001 12.5273 21.0535 12.5273 19.8948V17.7896H14.6326ZM12.5273 14.6316C12.5273 15.7903 13.4731 16.7369 14.6308 16.7369H19.8976C21.0553 16.7369 22.001 15.7903 22.001 14.6316C22.001 13.4729 21.0553 12.5264 19.8976 12.5264H14.6308C13.4731 12.5264 12.5273 13.4729 12.5273 14.6316Z" fill="#3D53F5"/>
</svg>
