<svg width="24" height="24" viewBox="0 0 24 24" fill="none" xmlns="http://www.w3.org/2000/svg">
<path fill-rule="evenodd" clip-rule="evenodd" d="M23.946 18.7034C23.7017 19.2733 22.6692 19.692 20.7885 19.9839C20.6918 20.1145 20.6116 20.6723 20.4835 21.1069C20.4073 21.3678 20.2199 21.5226 19.915 21.5226L19.9011 21.5224C19.4607 21.5224 19.0009 21.3197 18.0799 21.3197C16.8367 21.3197 16.4082 21.603 15.443 22.2848C14.4196 23.0085 13.4381 23.6331 11.973 23.5691C10.4896 23.6785 9.25304 22.7766 8.55714 22.2846C7.58617 21.5982 7.15895 21.3198 5.92084 21.3198C5.03659 21.3198 4.48009 21.541 4.09965 21.541C3.72123 21.541 3.57405 21.3103 3.51737 21.1173C3.39067 20.6866 3.31094 20.1206 3.21161 19.9862C2.24228 19.8358 0.0564514 19.4544 0.000763864 18.4792H0.000763861C-0.0132135 18.2254 0.166113 18.0018 0.416873 17.9603C3.67858 17.4233 5.14769 14.0743 5.20876 13.9321C5.21223 13.9239 5.21603 13.916 5.21987 13.908C5.39392 13.5547 5.43287 13.2588 5.33533 13.029C5.09861 12.4713 4.0757 12.2713 3.64534 12.101C2.5337 11.662 2.37901 11.1575 2.44478 10.8118C2.55901 10.2101 3.46314 9.83982 3.99175 10.0874C4.40983 10.2834 4.78126 10.3826 5.09551 10.3826C5.33092 10.3826 5.48045 10.3261 5.56239 10.2808C5.46662 8.59632 5.22953 6.1891 5.82897 4.84477C7.41208 1.29549 10.7675 1.01967 11.7576 1.01967C11.8018 1.01967 12.1861 1.0155 12.2315 1.0155C14.6759 1.0155 17.0246 2.27082 18.1716 4.84252C18.7705 6.18549 18.5349 8.58277 18.4386 10.2804C18.5127 10.3213 18.6428 10.3715 18.8417 10.3807C19.1415 10.3673 19.4892 10.2687 19.8761 10.0874C20.1614 9.954 20.5514 9.97205 20.8361 10.0901L20.8375 10.0906C21.2817 10.2493 21.5612 10.5694 21.5682 10.9283C21.5769 11.3851 21.1688 11.7797 20.3552 12.101C20.2559 12.1401 20.1352 12.1785 20.0067 12.2193C19.5475 12.3649 18.8536 12.5852 18.6654 13.0289C18.5679 13.2588 18.6065 13.5544 18.7807 13.9077C18.7847 13.9156 18.7885 13.9238 18.7919 13.9319C18.8529 14.0739 20.3207 17.4222 23.5839 17.96C23.8852 18.0096 24.1072 18.3293 23.946 18.7034V18.7034Z" fill="#3D53F5"/>
</svg>
