<svg width="24" height="24" viewBox="0 0 24 24" fill="none" xmlns="http://www.w3.org/2000/svg">
<path fill-rule="evenodd" clip-rule="evenodd" d="M4.1775 12.2238L4.395 14.6613L4.1775 17.2225C4.16625 17.3163 4.095 17.3875 4.0125 17.3875C3.93 17.3875 3.855 17.3163 3.855 17.2225L3.645 14.6613L3.855 12.2238C3.855 12.1413 3.92625 12.0663 4.0125 12.0663C4.095 12.0663 4.16625 12.1413 4.1775 12.2238ZM4.97998 10.5155C4.87498 10.5155 4.80373 10.598 4.79248 10.703L4.60498 14.663L4.79248 17.2243C4.80373 17.3293 4.87498 17.4118 4.97998 17.4118C5.07373 17.4118 5.15623 17.3293 5.15623 17.2243L5.37373 14.663L5.15623 10.703C5.15623 10.598 5.07373 10.5155 4.97998 10.5155ZM5.9375 9.60999C5.82125 9.60999 5.73875 9.69249 5.7275 9.80874L5.5625 14.6837L5.7275 17.2262C5.73875 17.3425 5.82125 17.425 5.9375 17.425C6.0425 17.425 6.13625 17.3425 6.13625 17.2262L6.335 14.6837L6.13625 9.80874C6.13625 9.69249 6.0425 9.60999 5.9375 9.60999ZM0.27 13.2343C0.2175 13.2343 0.1875 13.2755 0.17625 13.328L0 14.663L0.17625 15.9755C0.1875 16.028 0.2175 16.0693 0.27 16.0693C0.3225 16.0693 0.3525 16.028 0.36375 15.9755L0.57375 14.663L0.36375 13.328C0.3525 13.2755 0.3225 13.2343 0.27 13.2343ZM1.15504 12.41C1.10254 12.41 1.06129 12.4513 1.06129 12.5038L0.821289 14.66L1.06129 16.7638C1.06129 16.8275 1.10254 16.8688 1.15504 16.8688C1.20754 16.8688 1.24879 16.8275 1.26004 16.775L1.53004 14.66L1.26004 12.5038C1.24879 12.4513 1.20754 12.41 1.15504 12.41V12.41ZM2.10375 11.9838C2.04 11.9838 1.9875 12.0363 1.98 12.1075L1.7625 14.6613L1.98 17.1288C1.99125 17.1925 2.04375 17.245 2.10375 17.245C2.1675 17.245 2.22 17.1925 2.22 17.1288L2.47875 14.6613L2.22 12.1075C2.22 12.0363 2.1675 11.9838 2.10375 11.9838ZM3.0525 11.9013C2.98125 11.9013 2.9175 11.9538 2.9175 12.0363L2.7 14.6613L2.9175 17.2038C2.9175 17.2863 2.98125 17.3388 3.0525 17.3388C3.12375 17.3388 3.1875 17.2863 3.19875 17.2038L3.43875 14.6613L3.19875 12.0363C3.1875 11.9538 3.12375 11.9013 3.0525 11.9013ZM12.1033 7.74378C12.062 7.71378 11.9983 7.69128 11.9458 7.69128C11.8633 7.69128 11.7883 7.72128 11.7358 7.76253C11.6645 7.82628 11.6195 7.92003 11.612 8.01378V8.04378L11.4883 14.67L11.552 15.8888L11.6158 17.0775C11.627 17.2538 11.7733 17.4 11.9495 17.4C12.1258 17.4 12.272 17.2538 12.272 17.0775L12.4183 14.67L12.272 8.01378C12.257 7.90128 12.197 7.79628 12.1033 7.74378ZM11.1037 8.318C11.0512 8.288 10.9987 8.2655 10.9387 8.2655C10.8787 8.2655 10.8225 8.288 10.7737 8.318C10.6912 8.3705 10.6387 8.46425 10.6387 8.56925L10.6275 8.633L10.5225 14.663C10.5225 14.663 10.5225 14.6743 10.6387 17.123V17.1343C10.6387 17.198 10.6612 17.258 10.7025 17.3105C10.7662 17.3818 10.8487 17.4268 10.9425 17.4268C11.025 17.4268 11.1 17.3855 11.1525 17.333C11.2162 17.2805 11.2462 17.2093 11.2462 17.123L11.2575 16.8718L11.3737 14.6743L11.25 8.56925C11.2387 8.46425 11.1862 8.3705 11.1037 8.318ZM6.92625 9.16003C6.81 9.16003 6.70875 9.26503 6.70875 9.38878L6.54375 14.6613L6.70875 17.1813C6.72 17.305 6.81375 17.3988 6.92625 17.3988C7.05 17.3988 7.14375 17.305 7.155 17.1813L7.3425 14.6613L7.155 9.38878C7.1475 9.26503 7.05375 9.16003 6.92625 9.16003ZM21.0525 11.515C20.6475 11.515 20.2612 11.5975 19.905 11.7438C19.665 9.08878 17.4375 7.00378 14.7188 7.00378C14.0512 7.00378 13.4062 7.12753 12.8325 7.35628C12.6037 7.43878 12.54 7.52128 12.54 7.70128V17.065C12.54 17.2525 12.6862 17.3875 12.8625 17.41H21.0487C22.6725 17.41 23.9963 16.0975 23.9963 14.4738C24 12.8388 22.6762 11.515 21.0525 11.515ZM9.92797 9.25378C9.77047 9.25378 9.64672 9.37753 9.63547 9.54628L9.51172 14.6725L9.63547 17.1325C9.64672 17.29 9.77047 17.4138 9.92797 17.4138C10.0855 17.4138 10.2092 17.29 10.2092 17.1325L10.3555 14.6725L10.2092 9.54628C10.198 9.37753 10.0855 9.25378 9.92797 9.25378V9.25378ZM7.9175 8.9613C7.79375 8.9613 7.6775 9.07755 7.6775 9.21255L7.53125 14.6613L7.6775 17.1701C7.68875 17.3051 7.79375 17.4101 7.9175 17.4101C8.0525 17.4101 8.1575 17.3051 8.16875 17.1701L8.33375 14.6613L8.16875 9.21255C8.1575 9.07755 8.0525 8.9613 7.9175 8.9613ZM8.9175 9.08878C8.77125 9.08878 8.65875 9.20503 8.65875 9.34753L8.5125 14.6613L8.65875 17.1513C8.67 17.2975 8.775 17.41 8.9175 17.41C9.06 17.41 9.17625 17.2938 9.17625 17.1513L9.33375 14.6613L9.17625 9.34753C9.17625 9.20128 9.06375 9.08878 8.9175 9.08878Z" fill="#3D53F5"/>
</svg>
