<svg width="24" height="24" viewBox="0 0 24 24" fill="none" xmlns="http://www.w3.org/2000/svg">
<path fill-rule="evenodd" clip-rule="evenodd" d="M17.915 10.865C14.692 8.951 9.375 8.775 6.297 9.709C5.803 9.858 5.281 9.58 5.131 9.085C4.981 8.591 5.26 8.069 5.754 7.919C9.287 6.846 15.159 7.053 18.87 9.256C19.314 9.52 19.46 10.094 19.196 10.538C18.934 10.982 18.358 11.129 17.915 10.865V10.865ZM17.81 13.7C17.584 14.067 17.104 14.182 16.737 13.957C14.05 12.305 9.952 11.827 6.773 12.792C6.36 12.916 5.925 12.684 5.8 12.272C5.676 11.86 5.908 11.425 6.32 11.3C9.951 10.198 14.466 10.732 17.553 12.629C17.92 12.854 18.035 13.334 17.81 13.7V13.7ZM16.5876 16.423C16.4076 16.717 16.0246 16.81 15.7306 16.63C13.3826 15.195 10.4266 14.871 6.94555 15.666C6.61055 15.743 6.27555 15.533 6.19955 15.197C6.12255 14.862 6.33155 14.528 6.66855 14.451C10.4776 13.58 13.7446 13.955 16.3806 15.566C16.6746 15.746 16.7676 16.129 16.5876 16.423V16.423ZM12 2C6.477 2 2 6.477 2 12C2 17.523 6.477 22 12 22C17.523 22 22 17.523 22 12C22 6.478 17.523 2.001 12 2.001V2Z" fill="#3D53F5"/>
</svg>
