<svg width="24" height="24" viewBox="0 0 24 24" fill="none" xmlns="http://www.w3.org/2000/svg">
<path fill-rule="evenodd" clip-rule="evenodd" d="M18.8157 11.5132C18.5507 11.2445 18.1207 11.2445 17.8557 11.5132L11.52 17.9386C10.62 18.8514 9.15589 18.8514 8.25591 17.9395C7.99092 17.6707 7.56093 17.6707 7.29593 17.9395C7.03094 18.2082 7.03094 18.6443 7.29593 18.9131C8.72507 20.3625 11.0509 20.3625 12.48 18.9122L18.8157 12.4868C19.0807 12.218 19.0807 11.782 18.8157 11.5132V11.5132ZM20.9294 9.37086C19.5003 7.92149 17.1745 7.92149 15.7454 9.37171L9.40968 15.7971C9.14469 16.0659 9.14469 16.502 9.40968 16.7707C9.67468 17.0395 10.1047 17.0395 10.3697 16.7707L16.7054 10.3453C17.6053 9.43256 19.0695 9.43256 19.9695 10.3444C20.8694 11.2572 20.8694 12.742 19.9695 13.6548L14.8729 18.8235C14.6079 19.0923 14.6079 19.5283 14.8729 19.7971C15.1379 20.0658 15.5679 20.0658 15.8329 19.7971L20.9294 14.6283C22.3586 13.1798 22.3586 10.8202 20.9294 9.37086ZM16.7029 5.08693C15.2737 3.63755 12.948 3.63755 11.5188 5.08777L5.18312 11.5132C4.91813 11.782 4.91813 12.218 5.18312 12.4868C5.44812 12.7555 5.87811 12.7555 6.1431 12.4868L12.4788 6.06135C13.3788 5.14862 14.8429 5.14862 15.7429 6.06051C16.0079 6.32925 16.4379 6.32925 16.7029 6.06051C16.9679 5.79176 16.9679 5.35652 16.7029 5.08693ZM14.5916 7.2293C14.3266 6.96056 13.8966 6.96056 13.6316 7.2293L7.29593 13.6547C6.39595 14.5675 4.93181 14.5675 4.03183 13.6556C3.13185 12.7429 3.13185 11.258 4.03183 10.3453L9.12839 5.17651C9.39339 4.90776 9.39339 4.47168 9.12839 4.20293C8.8634 3.93419 8.43341 3.93419 8.16841 4.20293L3.07185 9.37084C1.64272 10.8202 1.64272 13.1789 3.07185 14.6283C4.50099 16.0777 6.82677 16.0777 8.25591 14.6275L14.5916 8.20204C14.8574 7.93413 14.8574 7.4989 14.5916 7.2293Z" fill="#3D53F5"/>
</svg>
