<svg width="24" height="24" viewBox="0 0 24 24" fill="none" xmlns="http://www.w3.org/2000/svg">
<path fill-rule="evenodd" clip-rule="evenodd" d="M6.18594 7.77734L4.56219 8.12234L4.55469 13.4623C4.55469 14.4486 5.29719 15.0861 6.28344 15.0861C6.83094 15.0861 7.23219 14.9848 7.45344 14.8648V13.5973C7.23969 13.6836 6.18969 13.9911 6.18969 13.0086V10.6386H7.45344V9.22109H6.18969L6.18594 7.77734ZM9.52891 9.71125L9.42766 9.22H7.98766V14.965H9.64891V11.0987C10.0427 10.5812 10.7064 10.6825 10.9202 10.75V9.22C10.6952 9.14125 9.91891 8.995 9.52891 9.71125ZM12.9889 7L11.3164 7.35625V8.71375L12.9889 8.3575V7ZM1.68391 10.913C1.68391 10.6542 1.90141 10.553 2.25016 10.5492C2.75641 10.5492 3.40141 10.703 3.90766 10.9767V9.40922C3.35641 9.19172 2.80516 9.10547 2.25391 9.10547C0.903906 9.10547 0.00390625 9.81047 0.00390625 10.988C0.00390625 12.833 2.53516 12.533 2.53516 13.328C2.53516 13.6355 2.26891 13.7367 1.89766 13.7367C1.34641 13.7367 0.633906 13.508 0.0751562 13.2042V14.7042C0.693906 14.9705 1.32016 15.083 1.89391 15.083C3.27766 15.083 4.23016 14.4905 4.23016 13.2905C4.23016 11.3067 1.68391 11.663 1.68391 10.913ZM24.0001 12.1619C24.0001 10.4556 23.1751 9.10938 21.5926 9.10938C20.0101 9.10938 19.0464 10.4556 19.0464 12.1506C19.0464 14.1569 20.1826 15.0831 21.8026 15.0831C22.5976 15.0831 23.1939 14.9031 23.6476 14.6519V13.3994C23.1939 13.6281 22.6726 13.7669 22.0126 13.7669C21.3639 13.7669 20.7939 13.5381 20.7189 12.7581H23.9776C23.9851 12.6719 24.0001 12.3231 24.0001 12.1619ZM20.7039 11.53C20.7039 10.78 21.1652 10.465 21.5814 10.465C21.9902 10.465 22.4252 10.78 22.4252 11.53H20.7039ZM16.4702 9.10938C15.8177 9.10938 15.3977 9.41688 15.1652 9.63063L15.0789 9.21813H13.6127V16.8981L15.2777 16.5456L15.2814 14.6631C15.5214 14.8394 15.8777 15.0831 16.4589 15.0831C17.6514 15.0831 18.7389 14.2131 18.7389 12.0981C18.7427 10.1631 17.6402 9.10938 16.4702 9.10938V9.10938ZM16.0727 13.7012C15.6827 13.7012 15.4502 13.5587 15.2889 13.3863L15.2777 10.9112C15.4502 10.72 15.6902 10.5812 16.0727 10.5812C16.6802 10.5812 17.1002 11.2637 17.1002 12.1337C17.1039 13.03 16.6914 13.7012 16.0727 13.7012ZM11.3203 14.9637H12.9928V9.21875H11.3203V14.9637Z" fill="#3D53F5"/>
</svg>
