<svg width="24" height="25" viewBox="0 0 24 25" fill="none" xmlns="http://www.w3.org/2000/svg">
<path fill-rule="evenodd" clip-rule="evenodd" d="M23.9449 6.68809C23.9449 6.44702 23.9407 6.20702 23.9342 5.96542V5.96545C23.9278 5.43854 23.8817 4.91287 23.7963 4.39289V4.39289C23.7072 3.87233 23.5411 3.36792 23.3035 2.89623L23.3035 2.89623C22.8211 1.94892 22.0509 1.17886 21.1034 0.696647L21.1034 0.696647C20.6319 0.458726 20.1274 0.292615 19.6068 0.203819V0.203819C19.0867 0.117959 18.5608 0.0716794 18.0337 0.0653779C17.7926 0.0589637 17.5526 0.0562911 17.311 0.0546875H6.63394C6.39287 0.0546875 6.15287 0.0589637 5.91127 0.0653779C5.78031 0.0691196 5.64882 0.0733957 5.51733 0.07981V0.07981C5.12201 0.0956847 4.72814 0.137107 4.33817 0.203819L4.33817 0.203819C3.94969 0.271612 3.5696 0.380925 3.20445 0.529877C3.08116 0.581547 2.95982 0.637138 2.84045 0.696648L2.84045 0.696648C2.48816 0.87696 2.15824 1.09798 1.85746 1.35518C1.75697 1.44124 1.66022 1.5305 1.56722 1.62244L1.56722 1.62244C1.19284 1.99586 0.879844 2.42611 0.639822 2.89727L0.639822 2.89727C0.402108 3.36891 0.236007 3.87333 0.146993 4.39393L0.146993 4.39393C0.0623743 4.91361 0.0169903 5.43893 0.0112249 5.96542C0.00427617 6.20649 0.00160356 6.44649 0 6.68809V17.3694C0 17.6105 0.00427617 17.8505 0.0112249 18.0916L0.0112246 18.0915C0.0175949 18.6184 0.0636929 19.1441 0.149126 19.6641L0.149126 19.6641C0.238023 20.1847 0.404129 20.6892 0.641955 21.1608H0.641955C1.12466 22.1073 1.89412 22.8772 2.84045 23.3603H2.84045C3.31211 23.5979 3.81654 23.7638 4.3371 23.8526V23.8526C4.85721 23.9385 5.38309 23.9848 5.91019 23.9911C6.15073 23.9975 6.39126 24.0002 6.63287 24.0018H17.3121C17.5531 24.0018 17.7931 23.9975 18.0347 23.9911H18.0347C18.562 23.9845 19.088 23.9382 19.6084 23.8526V23.8526C20.1289 23.7637 20.6333 23.5978 21.105 23.3603V23.3603C22.0516 22.8773 22.8212 22.1072 23.3035 21.1602V21.1602C23.5413 20.6887 23.7074 20.1842 23.7963 19.6636V19.6636C23.8822 19.1437 23.9285 18.618 23.9348 18.091C23.9412 17.8505 23.9439 17.61 23.9455 17.3689V7.546C23.9449 7.26003 23.9449 6.97406 23.9449 6.68809V6.68809ZM20.2083 19.5686C19.1393 17.4877 17.1492 18.004 16.1294 18.5279C16.0374 18.5813 15.9434 18.6348 15.8488 18.6882L15.8263 18.7016C13.7149 19.8241 10.8804 19.9064 8.03032 18.6813H8.03032C5.71025 17.6753 3.74847 15.9915 2.40234 13.8508L2.40234 13.8508C3.05726 14.3353 3.7586 14.7538 4.49606 15.1C7.50862 16.5111 10.5362 16.409 12.6742 15.1C9.62747 12.7561 7.08315 9.70131 5.13268 7.23075V7.23075C4.76111 6.79725 4.42539 6.33425 4.12885 5.84634C6.4647 7.98443 10.1529 10.6688 11.4774 11.4118C8.66747 8.44572 6.19156 4.78692 6.30756 4.90451C10.7329 9.36349 14.8161 11.8848 14.8161 11.8848C14.97 11.9693 15.0833 12.0372 15.1758 12.0986V12.0986C15.2613 11.8804 15.3356 11.6579 15.3982 11.4321C16.1048 8.84875 15.3094 5.89552 13.5108 3.45703C17.6154 5.9201 20.0415 10.602 19.0473 14.5617C19.0238 14.6542 18.9966 14.7434 18.9704 14.8338C21.0293 17.3674 20.4692 20.0812 20.2067 19.5691L20.2083 19.5686Z" fill="#3D53F5"/>
</svg>
