<svg width="24" height="24" viewBox="0 0 24 24" fill="none" xmlns="http://www.w3.org/2000/svg">
<path fill-rule="evenodd" clip-rule="evenodd" d="M22.999 9.84188C20.9348 9.84682 18.9213 9.20308 17.2428 8.0016V16.3811C17.2416 19.5592 15.2685 22.4029 12.2919 23.5165C9.31528 24.6301 5.96014 23.7797 3.87332 21.3827C1.7865 18.9858 1.40612 15.5455 2.91888 12.7505C4.43165 9.95559 7.51997 8.39275 10.6679 8.82914V13.0437C9.22496 12.5899 7.65371 13.1147 6.77324 14.3448C5.89278 15.5748 5.90253 17.2314 6.79743 18.451C7.69232 19.6705 9.26965 20.1769 10.7072 19.706C12.1447 19.2352 13.1168 17.8938 13.1168 16.3811V0H17.2428C17.2399 0.34843 17.2691 0.696385 17.33 1.03947V1.03947C17.6198 2.58733 18.5339 3.94765 19.8576 4.80068C20.7895 5.41681 21.8819 5.7452 22.999 5.74497V9.84188Z" fill="#3D53F5"/>
</svg>
