<svg width="24" height="24" viewBox="0 0 24 24" fill="none" xmlns="http://www.w3.org/2000/svg">
<path fill-rule="evenodd" clip-rule="evenodd" d="M19.5 2H4.5C3.08333 2 2 3.08333 2 4.5V19.5C2 20.9167 3.08333 22 4.5 22H19.5C20.9167 22 22 20.9167 22 19.5V4.5C22 3.08333 20.9167 2 19.5 2ZM10.3333 17C10.3333 17.9167 9.58333 18.6667 8.66667 18.6667H6.16667C5.25 18.6667 4.5 17.9167 4.5 17V6.16667C4.5 5.25 5.25 4.5 6.16667 4.5H8.66667C9.58333 4.5 10.3333 5.25 10.3333 6.16667V17ZM19.5013 12C19.5013 12.9167 18.7513 13.6667 17.8346 13.6667H15.3346C14.418 13.6667 13.668 12.9167 13.668 12V6.16667C13.668 5.25 14.418 4.5 15.3346 4.5H17.8346C18.7513 4.5 19.5013 5.25 19.5013 6.16667V12Z" fill="#3D53F5"/>
</svg>
