<svg width="24" height="24" viewBox="0 0 24 24" fill="none" xmlns="http://www.w3.org/2000/svg">
<path fill-rule="evenodd" clip-rule="evenodd" d="M6.93467 13.1479C6.93467 13.6994 6.48758 14.1465 5.93608 14.1465C5.38458 14.1465 4.9375 13.6994 4.9375 13.1479C4.9375 12.5964 5.38458 12.1493 5.93608 12.1493C6.48758 12.1493 6.93467 12.5963 6.93467 13.1479ZM17.9747 12.1484C17.4235 12.1484 16.9766 12.5953 16.9766 13.1466C16.9766 13.6979 17.4234 14.1448 17.9747 14.1448C18.526 14.1448 18.9729 13.6979 18.9729 13.1466C18.9729 12.5953 18.526 12.1484 17.9747 12.1484ZM21.6979 17.9618C19.0868 20.0078 15.3114 19.5496 13.2655 16.9385L11.9747 18.8687L10.6962 16.9546C8.68467 19.4708 5.04529 19.95 2.451 18.0402C-0.218083 16.0753 -0.788958 12.3187 1.17596 9.6496L1.17596 9.6496C0.923303 8.79438 0.525525 7.98894 0 7.26848L3.76192 7.26639L3.76191 7.26639C6.22257 5.73529 9.0755 4.95309 11.973 5.01514V5.01514C14.8011 4.96473 17.583 5.73697 19.9805 7.23802L23.9896 7.2411V7.2411C23.4593 7.96708 23.0595 8.77992 22.8082 9.64315C24.758 12.2576 24.2651 15.9502 21.6979 17.9618L21.6979 17.9618ZM10.8088 13.2007C10.8085 10.5525 8.66146 8.40596 6.01325 8.40625C3.36504 8.40654 1.2185 10.5535 1.21875 13.2017C1.21904 15.85 3.36604 17.9965 6.01425 17.9963C8.66062 17.9931 10.8053 15.8488 10.8088 13.2024V13.2007V13.2007ZM11.9982 12.7655C12.2245 9.70554 14.7277 7.31204 17.7948 7.22295L17.7948 7.22295C15.9581 6.42882 13.9737 6.03383 11.9729 6.06412L11.9729 6.06412C9.96946 6.04469 7.98285 6.43096 6.13269 7.19966C9.23036 7.26558 11.7701 9.67566 11.9981 12.7655L11.9982 12.7655ZM22.4859 11.567C21.5696 9.08229 18.8125 7.81087 16.3278 8.72716C13.843 9.64349 12.5716 12.4006 13.4879 14.8853V14.8866C14.4062 17.3702 17.1628 18.6404 19.6474 17.7247C22.1313 16.8078 23.4021 14.0512 22.4859 11.567ZM8.90292 13.1463V13.1511C8.90054 14.7898 7.57017 16.1162 5.9315 16.1139C4.29284 16.1115 2.96638 14.7811 2.96875 13.1424C2.97113 11.5038 4.3015 10.1773 5.94017 10.1797C7.57596 10.1845 8.90025 11.5105 8.90292 13.1463ZM7.87967 13.1476V13.1441C7.87754 12.0697 7.00492 11.2005 5.93058 11.2026C4.85625 11.2048 3.98704 12.0774 3.98917 13.1517C3.99129 14.226 4.86392 15.0952 5.93821 15.0931C7.01013 15.0884 7.87725 14.2194 7.87967 13.1476V13.1476ZM20.9389 13.1463V13.1483C20.9381 14.787 19.609 16.1147 17.9703 16.1139C16.3316 16.113 15.0039 14.7839 15.0048 13.1452C15.0056 11.5066 16.3347 10.1788 17.9734 10.1797C19.6105 10.1824 20.9368 11.5092 20.9389 13.1463ZM19.918 13.1472C19.9176 12.0729 19.0464 11.2023 17.972 11.2026C16.8977 11.203 16.0271 12.0742 16.0275 13.1486C16.0278 14.2229 16.899 15.0935 17.9734 15.0931C19.0469 15.0912 19.9165 14.2211 19.918 13.1476V13.1472Z" fill="#3D53F5"/>
</svg>
