<svg width="24" height="24" viewBox="0 0 24 24" fill="none" xmlns="http://www.w3.org/2000/svg">
<path fill-rule="evenodd" clip-rule="evenodd" d="M8.29 20.002C15.837 20.002 19.965 13.8457 19.965 8.50753C19.965 8.33228 19.965 8.15802 19.953 7.98474C20.756 7.4137 21.449 6.70483 22 5.89357C21.252 6.22044 20.457 6.43507 19.644 6.52958C20.5 6.02451 21.141 5.23097 21.448 4.29467C20.642 4.76528 19.761 5.09707 18.842 5.27528C17.288 3.64881 14.689 3.57005 13.036 5.10003C11.971 6.08654 11.518 7.55745 11.849 8.96042C8.55 8.79699 5.476 7.26307 3.392 4.73969C2.303 6.5857 2.86 8.94664 4.663 10.132C4.01 10.1133 3.371 9.94004 2.8 9.62696V9.67815C2.801 11.601 4.178 13.257 6.092 13.638C5.488 13.8004 4.854 13.8241 4.24 13.7069C4.777 15.3531 6.318 16.4804 8.073 16.5129C6.62 17.6372 4.825 18.2476 2.977 18.2457C2.651 18.2447 2.325 18.226 2 18.1876C3.877 19.373 6.06 20.0021 8.29 19.9991" fill="#3D53F5"/>
</svg>
