<svg width="24" height="24" viewBox="0 0 24 24" fill="none" xmlns="http://www.w3.org/2000/svg">
<path fill-rule="evenodd" clip-rule="evenodd" d="M5.26236 13.0643C5.26236 14.3614 4.38594 15.2381 3.25245 15.2381H3.25207C2.1067 15.2381 1.24197 14.3848 1.24197 13.0643V8.01697H0.0151367V13.1352C0.0151367 15.0627 1.3591 16.3365 3.11213 16.3365C3.96536 16.3365 4.72485 16.0092 5.27405 15.4366V16.1963H6.48919V8.01562H5.26236V13.0643ZM7.39967 8.01587H8.57993V10.9959C9.13605 10.4263 9.89898 10.1059 10.6951 10.1076C12.4481 10.1076 13.827 11.4984 13.827 13.228C13.827 14.946 12.4481 16.3365 10.6951 16.3365C9.89523 16.3387 9.12824 16.0185 8.56728 15.4484V16.196H7.39795L7.39967 8.01587ZM10.615 15.2965C11.737 15.2965 12.6602 14.3732 12.6602 13.228C12.6602 12.0709 11.737 11.1594 10.615 11.1594C9.4813 11.1594 8.55811 12.0709 8.55811 13.228C8.55811 14.3732 9.46961 15.2965 10.615 15.2965ZM20.3382 13.2181C20.3382 11.4417 19.0759 10.1211 17.3581 10.1211C15.6169 10.1212 14.2964 11.5353 14.2964 13.2181C14.2964 14.9943 15.6754 16.3266 17.4634 16.3266C18.5503 16.3266 19.4384 15.8475 20.0345 15.0528L19.1813 14.4217C18.7373 15.0177 18.1534 15.2983 17.4634 15.2983C16.4589 15.2983 15.6526 14.5737 15.4889 13.6038H20.3382V13.2181ZM19.1462 12.6678H15.5117C15.7222 11.7561 16.4585 11.1484 17.3349 11.1484C18.2113 11.1484 18.9476 11.7561 19.1462 12.6678ZM22.1729 12.8086C22.1729 11.8854 22.7338 11.2894 23.5051 11.2894L23.9965 11.29V10.1914H23.5876C22.9331 10.1914 22.4539 10.4952 22.1618 10.9745V10.2376H20.9924V16.1977H22.1729V12.8086Z" fill="#3D53F5"/>
</svg>
