<svg width="24" height="24" viewBox="0 0 24 24" fill="none" xmlns="http://www.w3.org/2000/svg">
<path fill-rule="evenodd" clip-rule="evenodd" d="M21.99 7.93262C21.9 9.8454 20.541 12.4654 17.911 15.7906C15.192 19.2635 12.891 21 11.009 21C9.843 21 8.857 19.9402 8.051 17.8216L6.437 11.9946C5.839 9.87495 5.197 8.81514 4.51 8.81514C4.36 8.81514 3.837 9.12441 2.941 9.74296L2 8.55117C2.986 7.69722 3.957 6.84326 4.913 5.99029C6.228 4.87138 7.214 4.28337 7.871 4.22427C9.425 4.07751 10.381 5.12156 10.74 7.35839C11.128 9.77251 11.397 11.2726 11.547 11.8616C11.995 13.863 12.488 14.8637 13.026 14.8637C13.444 14.8637 14.072 14.2166 14.908 12.9214C15.745 11.6262 16.193 10.6403 16.253 9.96359C16.372 8.84469 15.924 8.28622 14.908 8.28622C14.43 8.28622 13.937 8.38865 13.429 8.59451C14.415 5.44561 16.298 3.91499 19.077 4.00364C21.138 4.06274 22.11 5.37174 21.99 7.93262V7.93262V7.93262Z" fill="#3D53F5"/>
</svg>
