<svg width="24" height="24" viewBox="0 0 24 24" fill="none" xmlns="http://www.w3.org/2000/svg">
<path fill-rule="evenodd" clip-rule="evenodd" d="M2.00007 22L3.41281 16.8644C2.5414 15.3615 2.08285 13.6565 2.08357 11.9098C2.08577 6.44553 6.553 2 12.0418 2C14.7057 2.00106 17.206 3.03322 19.0861 4.90644C20.9662 6.77968 22.001 9.26967 22 11.9177C21.9978 17.382 17.5301 21.8282 12.0419 21.8282H12.0418H12.0378C10.3711 21.8275 8.73349 21.4114 7.279 20.6219L2 22H2.00007ZM7.52364 18.8277L7.82588 19.0062C9.09665 19.7567 10.5534 20.1538 12.0385 20.1544H12.0419C16.6039 20.1544 20.3168 16.4591 20.3187 11.9171C20.3195 9.71613 19.4594 7.64653 17.8967 6.08957C16.3341 4.5326 14.2559 3.67466 12.0452 3.67382C7.47973 3.67382 3.76672 7.36876 3.76489 11.9105C3.76426 13.4669 4.20186 14.9827 5.03037 16.2942L5.22719 16.6058L4.39103 19.6455L7.52364 18.8277ZM9.55154 7.76706C9.34958 7.28419 9.14444 7.34952 8.99171 7.34195C8.84674 7.33477 8.6807 7.33325 8.51482 7.33325C8.34895 7.33325 8.07939 7.39522 7.85131 7.64311C7.62324 7.89102 6.98047 8.49012 6.98047 9.70894C6.98047 10.9278 7.87205 12.1053 7.99646 12.2706C8.12086 12.4358 9.75099 14.9371 12.247 16.0097C12.8406 16.2648 13.3041 16.4171 13.6655 16.5313C14.2616 16.7198 14.804 16.6932 15.2327 16.6294C15.7108 16.5584 16.7048 16.0304 16.9122 15.4519C17.1195 14.8735 17.1195 14.3777 17.0573 14.2744C16.9951 14.1711 16.8293 14.1091 16.5805 13.9852C16.3316 13.8612 15.1083 13.2621 14.8802 13.1795C14.6521 13.0969 14.4863 13.0556 14.3204 13.3035C14.1545 13.5513 13.6777 14.1091 13.5325 14.2744C13.3874 14.4397 13.2423 14.4603 12.9935 14.3364C12.7446 14.2124 11.9429 13.9509 10.9925 13.1073C10.2529 12.4507 9.75345 11.6397 9.60831 11.3918C9.46317 11.1439 9.59287 11.0099 9.71743 10.8865C9.82934 10.7755 9.96623 10.5972 10.0906 10.4526C10.215 10.308 10.2565 10.2047 10.3395 10.0395C10.4224 9.8742 10.3809 9.72959 10.3187 9.60564C10.2565 9.4817 9.7589 8.26285 9.55154 7.76706V7.76706Z" fill="#3D53F5"/>
</svg>
