<svg width="24" height="24" viewBox="0 0 24 24" fill="none" xmlns="http://www.w3.org/2000/svg">
<path fill-rule="evenodd" clip-rule="evenodd" d="M9.98837 14.5859V8.97425C11.9806 9.91168 13.5235 10.8172 15.3484 11.7935C13.8433 12.6282 11.9806 13.5647 9.98837 14.5859M21.091 6.18289C20.7473 5.73013 20.1616 5.37809 19.538 5.26141C17.7052 4.91336 6.27094 4.91237 4.43914 5.26141C3.9391 5.35515 3.49384 5.58153 3.11133 5.93357C1.49964 7.42947 2.00466 15.4515 2.39314 16.751C2.5565 17.3134 2.76768 17.7193 3.03364 17.9856C3.3763 18.3376 3.84546 18.58 4.38436 18.6887C5.89346 19.0008 13.668 19.1753 19.5062 18.7355C20.0441 18.6418 20.5202 18.3915 20.8957 18.0245C22.3859 16.5346 22.2843 8.06175 21.091 6.18288" fill="#3D53F5"/>
</svg>
