<svg viewBox="0 0 24 24" fill="none" xmlns="http://www.w3.org/2000/svg">
<path d="M12 8.99996V13M12 17H12.01M10.24 3.95696L1.81802 18.017C1.64449 18.3177 1.5527 18.6585 1.55177 19.0057C1.55083 19.3529 1.64078 19.6943 1.81268 19.9959C1.98458 20.2975 2.23244 20.5489 2.53162 20.7251C2.83079 20.9012 3.17086 20.996 3.51802 21H20.363C20.7102 20.996 21.0502 20.9012 21.3494 20.7251C21.6486 20.5489 21.8965 20.2975 22.0684 19.9959C22.2403 19.6943 22.3302 19.3529 22.3293 19.0057C22.3283 18.6585 22.2365 18.3177 22.063 18.017L13.64 3.95696C13.4627 3.66495 13.2131 3.42355 12.9153 3.25602C12.6176 3.08849 12.2817 3.00049 11.94 3.00049C11.5984 3.00049 11.2625 3.08849 10.9647 3.25602C10.667 3.42355 10.4174 3.66495 10.24 3.95696Z" stroke="black" stroke-linecap="round" stroke-linejoin="round"/>
</svg>
