<svg viewBox="0 0 15 13" fill="none" xmlns="http://www.w3.org/2000/svg">
    <path d="M6.33333 10.6663H2.33333C1.97971 10.6663 1.64057 10.5259 1.39052 10.2758C1.14048 10.0258 1 9.68663 1 9.33301V2.66634M1 2.66634C1 2.31272 1.14048 1.97358 1.39052 1.72353C1.64057 1.47348 1.97971 1.33301 2.33333 1.33301H11.6667C12.0203 1.33301 12.3594 1.47348 12.6095 1.72353C12.8595 1.97358 13 2.31272 13 2.66634M1 2.66634L7 6.66634L13 2.66634M13 2.66634V6.66634M12.3333 11.9997L13.6667 10.6663L12.3333 9.33301M10.3333 9.33301L9 10.6663L10.3333 11.9997" stroke="currentColor" stroke-linecap="round" stroke-linejoin="round"/>
</svg>
