<svg viewBox="0 0 24 25" fill="none" xmlns="http://www.w3.org/2000/svg">
<path d="M6 19.3252C5.46957 19.3252 4.96086 19.1145 4.58579 18.7394C4.21071 18.3643 4 17.8556 4 17.3252V13.3252L3 12.3252L4 11.3252V7.3252C4 6.79476 4.21071 6.28605 4.58579 5.91098C4.96086 5.53591 5.46957 5.3252 6 5.3252M12 12.2002L15 10.5132M12 12.2002V15.5752M12 12.2002L9 10.5132M12 12.2002L15 13.8882M12 12.2002V8.8252M12 12.2002L9 13.8882M18 19.3252C18.5304 19.3252 19.0391 19.1145 19.4142 18.7394C19.7893 18.3643 20 17.8556 20 17.3252V13.3252L21 12.3252L20 11.3252V7.3252C20 6.79476 19.7893 6.28605 19.4142 5.91098C19.0391 5.53591 18.5304 5.3252 18 5.3252" stroke="currentColor" stroke-linecap="round" stroke-linejoin="round" stroke-width="2px"/>
</svg>
