<svg viewBox="0 0 24 24" fill="none" xmlns="http://www.w3.org/2000/svg">
<path d="M10.585 10.587C10.21 10.9622 9.99936 11.4709 9.99945 12.0014C9.99954 12.5318 10.2104 13.0405 10.5855 13.4155C10.9607 13.7905 11.4694 14.0012 11.9999 14.0011C12.5303 14.001 13.039 13.7902 13.414 13.415M16.681 16.673C15.2782 17.5507 13.6547 18.0109 12 18C8.4 18 5.4 16 3 12C4.272 9.88 5.712 8.322 7.32 7.326M10.18 6.18C10.779 6.05873 11.3888 5.99842 12 6C15.6 6 18.6 8 21 12C20.334 13.11 19.621 14.067 18.862 14.87M3 3L21 21" stroke="currentColor" stroke-linecap="round" stroke-linejoin="round"/>
</svg>
