<svg  viewBox="0 0 32 32" fill="none" xmlns="http://www.w3.org/2000/svg">
<g id="icon">
<path id="Vector" d="M20 12H20.0133M22.0733 5.12399L26.876 9.92665C27.2323 10.2829 27.5149 10.7058 27.7077 11.1712C27.9005 11.6367 27.9997 12.1355 27.9997 12.6393C27.9997 13.1431 27.9005 13.642 27.7077 14.1074C27.5149 14.5729 27.2323 14.9958 26.876 15.352L23.352 18.876C22.9958 19.2323 22.5729 19.5149 22.1074 19.7077C21.642 19.9005 21.1431 19.9997 20.6393 19.9997C20.1355 19.9997 19.6367 19.9005 19.1712 19.7077C18.7058 19.5149 18.2829 19.2323 17.9267 18.876L17.5253 18.4747L8.78133 27.2187C8.33829 27.6616 7.75343 27.9345 7.12933 27.9893L6.896 28H5.33333C5.00676 27.9999 4.69155 27.88 4.4475 27.663C4.20346 27.446 4.04754 27.147 4.00933 26.8227L4 26.6667V25.104C4.00015 24.4779 4.22058 23.8719 4.62267 23.392L4.78133 23.2187L5.33333 22.6667H8V20H10.6667V17.3333L13.5253 14.4747L13.124 14.0733C12.7677 13.7171 12.4851 13.2942 12.2923 12.8288C12.0995 12.3633 12.0003 11.8645 12.0003 11.3607C12.0003 10.8569 12.0995 10.358 12.2923 9.89255C12.4851 9.4271 12.7677 9.0042 13.124 8.64799L16.648 5.12399C17.0042 4.76772 17.4271 4.48511 17.8926 4.2923C18.358 4.09948 18.8569 4.00024 19.3607 4.00024C19.8645 4.00024 20.3633 4.09948 20.8288 4.2923C21.2942 4.48511 21.7171 4.76772 22.0733 5.12399Z" stroke="currentColor" stroke-linecap="round" stroke-linejoin="round"/>
</g>
</svg>
