<svg viewBox="0 0 16 16" fill="none" xmlns="http://www.w3.org/2000/svg">
<g id="left">
<path id="Vector" d="M9.33333 5.33366V4.00033C9.33333 3.6467 9.19286 3.30756 8.94281 3.05752C8.69276 2.80747 8.35362 2.66699 8 2.66699H3.33333C2.97971 2.66699 2.64057 2.80747 2.39052 3.05752C2.14048 3.30756 2 3.6467 2 4.00033V12.0003C2 12.3539 2.14048 12.6931 2.39052 12.9431C2.64057 13.1932 2.97971 13.3337 3.33333 13.3337H8C8.35362 13.3337 8.69276 13.1932 8.94281 12.9431C9.19286 12.6931 9.33333 12.3539 9.33333 12.0003V10.667M4.66667 8.00033H14M14 8.00033L12 6.00033M14 8.00033L12 10.0003" stroke="currentColor" stroke-linecap="round" stroke-linejoin="round"/>
</g>
</svg>
