<svg viewBox="0 0 24 25" fill="none" xmlns="http://www.w3.org/2000/svg">
<path d="M3 7.32532C3 6.79488 3.21071 6.28618 3.58579 5.9111C3.96086 5.53603 4.46957 5.32532 5 5.32532H19C19.5304 5.32532 20.0391 5.53603 20.4142 5.9111C20.7893 6.28618 21 6.79488 21 7.32532M3 7.32532V17.3253C3 17.8558 3.21071 18.3645 3.58579 18.7395C3.96086 19.1146 4.46957 19.3253 5 19.3253H19C19.5304 19.3253 20.0391 19.1146 20.4142 18.7395C20.7893 18.3645 21 17.8558 21 17.3253V7.32532M3 7.32532L12 13.3253L21 7.32532" stroke="currentColor" stroke-linecap="round" stroke-linejoin="round"/>
</svg>
