<svg  viewBox="0 0 13 14" fill="none" xmlns="http://www.w3.org/2000/svg">
    <path d="M10.6016 3.66656C11.2046 4.66735 11.4622 5.83846 11.3349 6.9999V7.66656C11.3342 8.36848 11.5181 9.05824 11.8683 9.66656M3.33492 6.33323C3.33492 5.62599 3.61587 4.94771 4.11597 4.44761C4.61607 3.94752 5.29434 3.66656 6.00159 3.66656C6.70883 3.66656 7.38711 3.94752 7.88721 4.44761C8.3873 4.94771 8.66825 5.62599 8.66825 6.33323V6.9999C8.66825 8.44237 9.13611 9.84592 10.0016 10.9999M6.00159 6.33323V7.66656C5.99946 9.57283 6.58109 11.434 7.66826 12.9999M3.33492 8.9999C3.49806 10.3931 3.9042 11.7469 4.53492 12.9999M1.26825 11.6666C0.818417 10.1534 0.615811 8.5776 0.668252 6.99989V6.33323C0.665696 5.3958 0.910267 4.47426 1.37732 3.66146C1.84438 2.84867 2.51741 2.17334 3.32861 1.70352C4.13981 1.2337 5.06052 0.985989 5.99795 0.985353C6.93538 0.984717 7.85642 1.23118 8.66825 1.69989" stroke="currentColor" stroke-linecap="round" stroke-linejoin="round"/>
</svg>
