<svg viewBox="0 0 32 32" fill="none" xmlns="http://www.w3.org/2000/svg">
    <path id="Vector" d="M9.33301 22.6668V22.6802M9.33301 9.3335V9.34683M22.6663 9.3335V9.34683M22.6663 18.6668H18.6663V22.6668M26.6663 18.6668V18.6802M18.6663 26.6668H22.6663M22.6663 22.6668H26.6663V26.6668M5.33301 6.66683C5.33301 6.31321 5.47348 5.97407 5.72353 5.72402C5.97358 5.47397 6.31272 5.3335 6.66634 5.3335H11.9997C12.3533 5.3335 12.6924 5.47397 12.9425 5.72402C13.1925 5.97407 13.333 6.31321 13.333 6.66683V12.0002C13.333 12.3538 13.1925 12.6929 12.9425 12.943C12.6924 13.193 12.3533 13.3335 11.9997 13.3335H6.66634C6.31272 13.3335 5.97358 13.193 5.72353 12.943C5.47348 12.6929 5.33301 12.3538 5.33301 12.0002V6.66683ZM18.6663 6.66683C18.6663 6.31321 18.8068 5.97407 19.0569 5.72402C19.3069 5.47397 19.6461 5.3335 19.9997 5.3335H25.333C25.6866 5.3335 26.0258 5.47397 26.2758 5.72402C26.5259 5.97407 26.6663 6.31321 26.6663 6.66683V12.0002C26.6663 12.3538 26.5259 12.6929 26.2758 12.943C26.0258 13.193 25.6866 13.3335 25.333 13.3335H19.9997C19.6461 13.3335 19.3069 13.193 19.0569 12.943C18.8068 12.6929 18.6663 12.3538 18.6663 12.0002V6.66683ZM5.33301 20.0002C5.33301 19.6465 5.47348 19.3074 5.72353 19.0574C5.97358 18.8073 6.31272 18.6668 6.66634 18.6668H11.9997C12.3533 18.6668 12.6924 18.8073 12.9425 19.0574C13.1925 19.3074 13.333 19.6465 13.333 20.0002V25.3335C13.333 25.6871 13.1925 26.0263 12.9425 26.2763C12.6924 26.5264 12.3533 26.6668 11.9997 26.6668H6.66634C6.31272 26.6668 5.97358 26.5264 5.72353 26.2763C5.47348 26.0263 5.33301 25.6871 5.33301 25.3335V20.0002Z" stroke="currentColor" stroke-linecap="round" stroke-linejoin="round" stroke-width="2px"/>
</svg>
