<svg  viewBox="0 0 14 14" fill="none" xmlns="http://www.w3.org/2000/svg">
    <path d="M9 4.99988H9.00667M10.0367 1.56187L12.438 3.96321C12.6161 4.14131 12.7574 4.35276 12.8538 4.58548C12.9503 4.81821 12.9999 5.06764 12.9999 5.31954C12.9999 5.57144 12.9503 5.82087 12.8538 6.05359C12.7574 6.28631 12.6161 6.49776 12.438 6.67587L10.676 8.43787C10.4979 8.616 10.2864 8.75731 10.0537 8.85372C9.821 8.95012 9.57157 8.99974 9.31967 8.99974C9.06777 8.99974 8.81833 8.95012 8.58561 8.85372C8.35289 8.75731 8.14144 8.616 7.96333 8.43787L7.76267 8.2372L3.39067 12.6092C3.16915 12.8307 2.87672 12.9671 2.56467 12.9945L2.448 12.9999H1.66667C1.50338 12.9998 1.34578 12.9399 1.22375 12.8314C1.10173 12.7229 1.02377 12.5734 1.00467 12.4112L1 12.3332V11.5519C1.00008 11.2388 1.11029 10.9358 1.31133 10.6959L1.39067 10.6092L1.66667 10.3332H3V8.99987H4.33333V7.66654L5.76267 6.2372L5.562 6.03654C5.38387 5.85843 5.24256 5.64698 5.14615 5.41426C5.04975 5.18154 5.00013 4.9321 5.00013 4.6802C5.00013 4.42831 5.04975 4.17887 5.14615 3.94615C5.24256 3.71343 5.38387 3.50198 5.562 3.32387L7.324 1.56187C7.50211 1.38374 7.71356 1.24243 7.94628 1.14603C8.179 1.04962 8.42843 1 8.68033 1C8.93223 1 9.18167 1.04962 9.41439 1.14603C9.64711 1.24243 9.85856 1.38374 10.0367 1.56187Z" stroke="currentColor" stroke-linecap="round" stroke-linejoin="round"/>
</svg>
