<svg viewBox="0 0 32 32" fill="none" xmlns="http://www.w3.org/2000/svg">
<path d="M27.7337 11.5504C27.6 11.6284 24.4174 13.2743 24.4174 16.9237C24.5674 21.0857 28.4337 22.5452 28.5 22.5452C28.4337 22.6232 27.9163 24.5335 26.3837 26.536C25.1674 28.2609 23.8174 30 21.7674 30C19.8174 30 19.1174 28.8504 16.8674 28.8504C14.4511 28.8504 13.7674 30 11.9173 30C9.86734 30 8.41734 28.1677 7.13473 26.459C5.46842 24.2225 4.05211 20.7129 4.00211 17.3431C3.96842 15.5574 4.33581 13.8021 5.26842 12.3111C6.58473 10.2296 8.93473 8.81667 11.501 8.77008C13.4674 8.70829 15.2174 10.0281 16.4174 10.0281C17.5674 10.0281 19.7174 8.77008 22.15 8.77008C23.2 8.77109 26 9.06584 27.7337 11.5504ZM16.2511 8.41354C15.9011 6.78281 16.8674 5.15208 17.7674 4.11185C18.9174 2.85386 20.7337 2 22.3 2C22.4 3.63073 21.7663 5.23007 20.6337 6.39488C19.6174 7.65287 17.8674 8.59991 16.2511 8.41354Z" fill="#283544" id="apple-svg"/>
</svg>
