<svg  viewBox="0 0 24 24" fill="none" xmlns="http://www.w3.org/2000/svg">
<g clip-path="url(#clip0_101_2)">
<path d="M23.9994 12.0003C23.9994 5.37306 18.627 0.000618863 11.9997 0.000618863C5.37245 0.000618863 0 5.37306 0 12.0003C0 17.9897 4.38812 22.954 10.1247 23.8542V15.469H7.07795V12.0003H10.1247V9.35664C10.1247 6.34921 11.9162 4.688 14.6572 4.688C15.9701 4.688 17.3433 4.92237 17.3433 4.92237V7.87542H15.8302C14.3395 7.87542 13.8747 8.80041 13.8747 9.74937V12.0003H17.2027L16.6707 15.469H13.8747V23.8542C19.6113 22.954 23.9994 17.9897 23.9994 12.0003Z" fill="#1877F2"/>
<path d="M16.6707 15.469L17.2028 12.0003H13.8747V9.74935C13.8747 8.80038 14.3396 7.8754 15.8302 7.8754H17.3434V4.92235C17.3434 4.92235 15.9701 4.68798 14.6573 4.68798C11.9163 4.68798 10.1248 6.34919 10.1248 9.35661V12.0003H7.078V15.469H10.1248V23.8542C10.7357 23.9501 11.3619 24 11.9998 24C12.6376 24 13.2638 23.9501 13.8747 23.8542V15.469H16.6707Z" fill="white"/>
</g>
<defs>
<clipPath id="clip0_101_2">
<rect  fill="white"/>
</clipPath>
</defs>
</svg>
