<svg  viewBox="0 0 24 24" fill="none" xmlns="http://www.w3.org/2000/svg">
<path d="M22.7082 10.6913L22.677 10.6188L19.6617 3.45202C19.6004 3.31155 19.4917 3.1924 19.3514 3.11165C19.211 3.03227 19.0472 2.99403 18.8822 3.00211C18.7172 3.01019 18.5588 3.06419 18.4286 3.15682C18.2998 3.25211 18.2063 3.38123 18.161 3.52661L16.125 9.19952H7.88075L5.84478 3.52661C5.80063 3.38044 5.70698 3.25067 5.57717 3.15577C5.44691 3.06314 5.28858 3.00914 5.12355 3.00106C4.95853 2.99298 4.79475 3.03121 4.65434 3.11059C4.51434 3.19167 4.4058 3.31073 4.34405 3.45097L1.32297 10.6146L1.29297 10.6871C0.858905 11.72 0.805326 12.8534 1.14032 13.9164C1.4753 14.9795 2.1807 15.9145 3.15015 16.5806L3.16053 16.588L3.18821 16.6058L7.78155 19.7385L10.054 21.3049L11.4382 22.2567C11.6001 22.3686 11.7978 22.4292 12.0011 22.4292C12.2044 22.4292 12.4021 22.3686 12.5641 22.2567L13.9483 21.3049L16.2207 19.7385L20.8418 16.5869L20.8533 16.5785C21.8206 15.9123 22.5243 14.9782 22.8588 13.9166C23.1933 12.855 23.1404 11.7232 22.7082 10.6913Z" fill="#E24329"/>
<path d="M22.7081 10.6913L22.677 10.6188C21.2077 10.8935 19.8232 11.4603 18.6224 12.2787L12 16.8391C14.2551 18.3928 16.2184 19.7428 16.2184 19.7428L20.8394 16.5911L20.851 16.5827C21.8196 15.9166 22.5245 14.9819 22.8594 13.9194C23.1944 12.8568 23.1413 11.724 22.7081 10.6913Z" fill="#FC6D26"/>
<path d="M7.78149 19.7427L10.0539 21.3091L11.4382 22.2608C11.6001 22.3728 11.7978 22.4334 12.0011 22.4334C12.2044 22.4334 12.4021 22.3728 12.564 22.2608L13.9482 21.3091L16.2207 19.7427C16.2207 19.7427 14.2551 18.3886 11.9999 16.839C9.74479 18.3886 7.78149 19.7427 7.78149 19.7427Z" fill="#FCA326"/>
<path d="M5.37645 12.2786C4.17655 11.4585 2.79233 10.8903 1.32297 10.6146L1.29297 10.6871C0.858905 11.72 0.805326 12.8534 1.14032 13.9164C1.4753 14.9795 2.1807 15.9145 3.15015 16.5806L3.16053 16.588L3.18821 16.6058L7.78155 19.7385C7.78155 19.7385 9.74254 18.3886 12 16.8348L5.37645 12.2786Z" fill="#FC6D26"/>
</svg>
